G04 #@! TF.GenerationSoftware,KiCad,Pcbnew,(5.1.10)-1*
G04 #@! TF.CreationDate,2021-08-13T13:47:00+01:00*
G04 #@! TF.ProjectId,DataAqBoardV1.1,44617461-4171-4426-9f61-726456312e31,rev?*
G04 #@! TF.SameCoordinates,Original*
G04 #@! TF.FileFunction,Soldermask,Bot*
G04 #@! TF.FilePolarity,Negative*
%FSLAX46Y46*%
G04 Gerber Fmt 4.6, Leading zero omitted, Abs format (unit mm)*
G04 Created by KiCad (PCBNEW (5.1.10)-1) date 2021-08-13 13:47:00*
%MOMM*%
%LPD*%
G01*
G04 APERTURE LIST*
%ADD10C,3.200000*%
%ADD11C,4.350000*%
%ADD12C,2.250000*%
%ADD13R,1.500000X1.500000*%
%ADD14C,1.500000*%
%ADD15C,4.650000*%
G04 APERTURE END LIST*
D10*
G04 #@! TO.C,*
X194000000Y-144000000D03*
G04 #@! TD*
G04 #@! TO.C,*
X194000000Y-56000000D03*
G04 #@! TD*
G04 #@! TO.C,*
X85700000Y-56000000D03*
G04 #@! TD*
G04 #@! TO.C,*
X85700000Y-144000000D03*
G04 #@! TD*
D11*
G04 #@! TO.C,J1*
X101050000Y-143950000D03*
D12*
X105000000Y-133700000D03*
X97100000Y-133700000D03*
G04 #@! TD*
G04 #@! TO.C,J2*
X105000000Y-66300000D03*
X97100000Y-66300000D03*
D11*
X101050000Y-56050000D03*
G04 #@! TD*
D13*
G04 #@! TO.C,J3*
X165000000Y-63000000D03*
D14*
X167740000Y-63000000D03*
X170480000Y-63000000D03*
X173220000Y-63000000D03*
X175960000Y-63000000D03*
X166370000Y-60460000D03*
X169110000Y-60460000D03*
X171850000Y-60460000D03*
X174590000Y-60460000D03*
D15*
X157980000Y-61730000D03*
X182980000Y-61730000D03*
G04 #@! TD*
G04 #@! TO.C,J4*
X142980000Y-61730000D03*
X117980000Y-61730000D03*
D14*
X134590000Y-60460000D03*
X131850000Y-60460000D03*
X129110000Y-60460000D03*
X126370000Y-60460000D03*
X135960000Y-63000000D03*
X133220000Y-63000000D03*
X130480000Y-63000000D03*
X127740000Y-63000000D03*
D13*
X125000000Y-63000000D03*
G04 #@! TD*
G04 #@! TO.C,J5*
X136000000Y-137000000D03*
D14*
X133260000Y-137000000D03*
X130520000Y-137000000D03*
X127780000Y-137000000D03*
X125040000Y-137000000D03*
X134630000Y-139540000D03*
X131890000Y-139540000D03*
X129150000Y-139540000D03*
X126410000Y-139540000D03*
D15*
X143020000Y-138270000D03*
X118020000Y-138270000D03*
G04 #@! TD*
G04 #@! TO.C,J6*
X158020000Y-138270000D03*
X183020000Y-138270000D03*
D14*
X166410000Y-139540000D03*
X169150000Y-139540000D03*
X171890000Y-139540000D03*
X174630000Y-139540000D03*
X165040000Y-137000000D03*
X167780000Y-137000000D03*
X170520000Y-137000000D03*
X173260000Y-137000000D03*
D13*
X176000000Y-137000000D03*
G04 #@! TD*
M02*
