G04 #@! TF.GenerationSoftware,KiCad,Pcbnew,(5.1.10)-1*
G04 #@! TF.CreationDate,2021-08-13T13:47:00+01:00*
G04 #@! TF.ProjectId,DataAqBoardV1.1,44617461-4171-4426-9f61-726456312e31,rev?*
G04 #@! TF.SameCoordinates,Original*
G04 #@! TF.FileFunction,Soldermask,Top*
G04 #@! TF.FilePolarity,Negative*
%FSLAX46Y46*%
G04 Gerber Fmt 4.6, Leading zero omitted, Abs format (unit mm)*
G04 Created by KiCad (PCBNEW (5.1.10)-1) date 2021-08-13 13:47:00*
%MOMM*%
%LPD*%
G01*
G04 APERTURE LIST*
%ADD10C,3.200000*%
%ADD11R,1.250000X0.650000*%
%ADD12R,0.650000X1.525000*%
%ADD13R,1.475000X0.450000*%
%ADD14C,4.350000*%
%ADD15C,2.250000*%
%ADD16R,1.500000X1.500000*%
%ADD17C,1.500000*%
%ADD18C,4.650000*%
%ADD19O,1.998980X2.748280*%
%ADD20O,2.032000X1.016000*%
%ADD21C,1.143000*%
%ADD22R,1.250000X0.550000*%
G04 APERTURE END LIST*
D10*
G04 #@! TO.C,*
X194000000Y-144000000D03*
G04 #@! TD*
G04 #@! TO.C,*
X194000000Y-56000000D03*
G04 #@! TD*
G04 #@! TO.C,*
X85700000Y-56000000D03*
G04 #@! TD*
G04 #@! TO.C,*
X85700000Y-144000000D03*
G04 #@! TD*
G04 #@! TO.C,C1*
G36*
G01*
X165100000Y-77050000D02*
X165300000Y-77050000D01*
G75*
G02*
X165400000Y-77150000I0J-100000D01*
G01*
X165400000Y-77410000D01*
G75*
G02*
X165300000Y-77510000I-100000J0D01*
G01*
X165100000Y-77510000D01*
G75*
G02*
X165000000Y-77410000I0J100000D01*
G01*
X165000000Y-77150000D01*
G75*
G02*
X165100000Y-77050000I100000J0D01*
G01*
G37*
G36*
G01*
X165100000Y-77690000D02*
X165300000Y-77690000D01*
G75*
G02*
X165400000Y-77790000I0J-100000D01*
G01*
X165400000Y-78050000D01*
G75*
G02*
X165300000Y-78150000I-100000J0D01*
G01*
X165100000Y-78150000D01*
G75*
G02*
X165000000Y-78050000I0J100000D01*
G01*
X165000000Y-77790000D01*
G75*
G02*
X165100000Y-77690000I100000J0D01*
G01*
G37*
G04 #@! TD*
G04 #@! TO.C,C2*
G36*
G01*
X163900000Y-79910000D02*
X163700000Y-79910000D01*
G75*
G02*
X163600000Y-79810000I0J100000D01*
G01*
X163600000Y-79550000D01*
G75*
G02*
X163700000Y-79450000I100000J0D01*
G01*
X163900000Y-79450000D01*
G75*
G02*
X164000000Y-79550000I0J-100000D01*
G01*
X164000000Y-79810000D01*
G75*
G02*
X163900000Y-79910000I-100000J0D01*
G01*
G37*
G36*
G01*
X163900000Y-80550000D02*
X163700000Y-80550000D01*
G75*
G02*
X163600000Y-80450000I0J100000D01*
G01*
X163600000Y-80190000D01*
G75*
G02*
X163700000Y-80090000I100000J0D01*
G01*
X163900000Y-80090000D01*
G75*
G02*
X164000000Y-80190000I0J-100000D01*
G01*
X164000000Y-80450000D01*
G75*
G02*
X163900000Y-80550000I-100000J0D01*
G01*
G37*
G04 #@! TD*
G04 #@! TO.C,C3*
G36*
G01*
X102900000Y-127050000D02*
X103100000Y-127050000D01*
G75*
G02*
X103200000Y-127150000I0J-100000D01*
G01*
X103200000Y-127410000D01*
G75*
G02*
X103100000Y-127510000I-100000J0D01*
G01*
X102900000Y-127510000D01*
G75*
G02*
X102800000Y-127410000I0J100000D01*
G01*
X102800000Y-127150000D01*
G75*
G02*
X102900000Y-127050000I100000J0D01*
G01*
G37*
G36*
G01*
X102900000Y-127690000D02*
X103100000Y-127690000D01*
G75*
G02*
X103200000Y-127790000I0J-100000D01*
G01*
X103200000Y-128050000D01*
G75*
G02*
X103100000Y-128150000I-100000J0D01*
G01*
X102900000Y-128150000D01*
G75*
G02*
X102800000Y-128050000I0J100000D01*
G01*
X102800000Y-127790000D01*
G75*
G02*
X102900000Y-127690000I100000J0D01*
G01*
G37*
G04 #@! TD*
G04 #@! TO.C,C4*
G36*
G01*
X99600000Y-72310000D02*
X99400000Y-72310000D01*
G75*
G02*
X99300000Y-72210000I0J100000D01*
G01*
X99300000Y-71950000D01*
G75*
G02*
X99400000Y-71850000I100000J0D01*
G01*
X99600000Y-71850000D01*
G75*
G02*
X99700000Y-71950000I0J-100000D01*
G01*
X99700000Y-72210000D01*
G75*
G02*
X99600000Y-72310000I-100000J0D01*
G01*
G37*
G36*
G01*
X99600000Y-72950000D02*
X99400000Y-72950000D01*
G75*
G02*
X99300000Y-72850000I0J100000D01*
G01*
X99300000Y-72590000D01*
G75*
G02*
X99400000Y-72490000I100000J0D01*
G01*
X99600000Y-72490000D01*
G75*
G02*
X99700000Y-72590000I0J-100000D01*
G01*
X99700000Y-72850000D01*
G75*
G02*
X99600000Y-72950000I-100000J0D01*
G01*
G37*
G04 #@! TD*
G04 #@! TO.C,C5*
G36*
G01*
X158290000Y-82500000D02*
X158290000Y-82300000D01*
G75*
G02*
X158390000Y-82200000I100000J0D01*
G01*
X158650000Y-82200000D01*
G75*
G02*
X158750000Y-82300000I0J-100000D01*
G01*
X158750000Y-82500000D01*
G75*
G02*
X158650000Y-82600000I-100000J0D01*
G01*
X158390000Y-82600000D01*
G75*
G02*
X158290000Y-82500000I0J100000D01*
G01*
G37*
G36*
G01*
X157650000Y-82500000D02*
X157650000Y-82300000D01*
G75*
G02*
X157750000Y-82200000I100000J0D01*
G01*
X158010000Y-82200000D01*
G75*
G02*
X158110000Y-82300000I0J-100000D01*
G01*
X158110000Y-82500000D01*
G75*
G02*
X158010000Y-82600000I-100000J0D01*
G01*
X157750000Y-82600000D01*
G75*
G02*
X157650000Y-82500000I0J100000D01*
G01*
G37*
G04 #@! TD*
G04 #@! TO.C,C6*
G36*
G01*
X157790000Y-81700000D02*
X157790000Y-81500000D01*
G75*
G02*
X157890000Y-81400000I100000J0D01*
G01*
X158150000Y-81400000D01*
G75*
G02*
X158250000Y-81500000I0J-100000D01*
G01*
X158250000Y-81700000D01*
G75*
G02*
X158150000Y-81800000I-100000J0D01*
G01*
X157890000Y-81800000D01*
G75*
G02*
X157790000Y-81700000I0J100000D01*
G01*
G37*
G36*
G01*
X157150000Y-81700000D02*
X157150000Y-81500000D01*
G75*
G02*
X157250000Y-81400000I100000J0D01*
G01*
X157510000Y-81400000D01*
G75*
G02*
X157610000Y-81500000I0J-100000D01*
G01*
X157610000Y-81700000D01*
G75*
G02*
X157510000Y-81800000I-100000J0D01*
G01*
X157250000Y-81800000D01*
G75*
G02*
X157150000Y-81700000I0J100000D01*
G01*
G37*
G04 #@! TD*
G04 #@! TO.C,C7*
G36*
G01*
X163100000Y-71850000D02*
X162900000Y-71850000D01*
G75*
G02*
X162800000Y-71750000I0J100000D01*
G01*
X162800000Y-71490000D01*
G75*
G02*
X162900000Y-71390000I100000J0D01*
G01*
X163100000Y-71390000D01*
G75*
G02*
X163200000Y-71490000I0J-100000D01*
G01*
X163200000Y-71750000D01*
G75*
G02*
X163100000Y-71850000I-100000J0D01*
G01*
G37*
G36*
G01*
X163100000Y-71210000D02*
X162900000Y-71210000D01*
G75*
G02*
X162800000Y-71110000I0J100000D01*
G01*
X162800000Y-70850000D01*
G75*
G02*
X162900000Y-70750000I100000J0D01*
G01*
X163100000Y-70750000D01*
G75*
G02*
X163200000Y-70850000I0J-100000D01*
G01*
X163200000Y-71110000D01*
G75*
G02*
X163100000Y-71210000I-100000J0D01*
G01*
G37*
G04 #@! TD*
G04 #@! TO.C,C8*
G36*
G01*
X117500000Y-71750000D02*
X117300000Y-71750000D01*
G75*
G02*
X117200000Y-71650000I0J100000D01*
G01*
X117200000Y-71390000D01*
G75*
G02*
X117300000Y-71290000I100000J0D01*
G01*
X117500000Y-71290000D01*
G75*
G02*
X117600000Y-71390000I0J-100000D01*
G01*
X117600000Y-71650000D01*
G75*
G02*
X117500000Y-71750000I-100000J0D01*
G01*
G37*
G36*
G01*
X117500000Y-71110000D02*
X117300000Y-71110000D01*
G75*
G02*
X117200000Y-71010000I0J100000D01*
G01*
X117200000Y-70750000D01*
G75*
G02*
X117300000Y-70650000I100000J0D01*
G01*
X117500000Y-70650000D01*
G75*
G02*
X117600000Y-70750000I0J-100000D01*
G01*
X117600000Y-71010000D01*
G75*
G02*
X117500000Y-71110000I-100000J0D01*
G01*
G37*
G04 #@! TD*
G04 #@! TO.C,C9*
G36*
G01*
X122600000Y-71210000D02*
X122400000Y-71210000D01*
G75*
G02*
X122300000Y-71110000I0J100000D01*
G01*
X122300000Y-70850000D01*
G75*
G02*
X122400000Y-70750000I100000J0D01*
G01*
X122600000Y-70750000D01*
G75*
G02*
X122700000Y-70850000I0J-100000D01*
G01*
X122700000Y-71110000D01*
G75*
G02*
X122600000Y-71210000I-100000J0D01*
G01*
G37*
G36*
G01*
X122600000Y-71850000D02*
X122400000Y-71850000D01*
G75*
G02*
X122300000Y-71750000I0J100000D01*
G01*
X122300000Y-71490000D01*
G75*
G02*
X122400000Y-71390000I100000J0D01*
G01*
X122600000Y-71390000D01*
G75*
G02*
X122700000Y-71490000I0J-100000D01*
G01*
X122700000Y-71750000D01*
G75*
G02*
X122600000Y-71850000I-100000J0D01*
G01*
G37*
G04 #@! TD*
G04 #@! TO.C,C10*
G36*
G01*
X128300000Y-71950000D02*
X128100000Y-71950000D01*
G75*
G02*
X128000000Y-71850000I0J100000D01*
G01*
X128000000Y-71590000D01*
G75*
G02*
X128100000Y-71490000I100000J0D01*
G01*
X128300000Y-71490000D01*
G75*
G02*
X128400000Y-71590000I0J-100000D01*
G01*
X128400000Y-71850000D01*
G75*
G02*
X128300000Y-71950000I-100000J0D01*
G01*
G37*
G36*
G01*
X128300000Y-71310000D02*
X128100000Y-71310000D01*
G75*
G02*
X128000000Y-71210000I0J100000D01*
G01*
X128000000Y-70950000D01*
G75*
G02*
X128100000Y-70850000I100000J0D01*
G01*
X128300000Y-70850000D01*
G75*
G02*
X128400000Y-70950000I0J-100000D01*
G01*
X128400000Y-71210000D01*
G75*
G02*
X128300000Y-71310000I-100000J0D01*
G01*
G37*
G04 #@! TD*
G04 #@! TO.C,C11*
G36*
G01*
X134300000Y-71210000D02*
X134100000Y-71210000D01*
G75*
G02*
X134000000Y-71110000I0J100000D01*
G01*
X134000000Y-70850000D01*
G75*
G02*
X134100000Y-70750000I100000J0D01*
G01*
X134300000Y-70750000D01*
G75*
G02*
X134400000Y-70850000I0J-100000D01*
G01*
X134400000Y-71110000D01*
G75*
G02*
X134300000Y-71210000I-100000J0D01*
G01*
G37*
G36*
G01*
X134300000Y-71850000D02*
X134100000Y-71850000D01*
G75*
G02*
X134000000Y-71750000I0J100000D01*
G01*
X134000000Y-71490000D01*
G75*
G02*
X134100000Y-71390000I100000J0D01*
G01*
X134300000Y-71390000D01*
G75*
G02*
X134400000Y-71490000I0J-100000D01*
G01*
X134400000Y-71750000D01*
G75*
G02*
X134300000Y-71850000I-100000J0D01*
G01*
G37*
G04 #@! TD*
G04 #@! TO.C,C12*
G36*
G01*
X140400000Y-71850000D02*
X140200000Y-71850000D01*
G75*
G02*
X140100000Y-71750000I0J100000D01*
G01*
X140100000Y-71490000D01*
G75*
G02*
X140200000Y-71390000I100000J0D01*
G01*
X140400000Y-71390000D01*
G75*
G02*
X140500000Y-71490000I0J-100000D01*
G01*
X140500000Y-71750000D01*
G75*
G02*
X140400000Y-71850000I-100000J0D01*
G01*
G37*
G36*
G01*
X140400000Y-71210000D02*
X140200000Y-71210000D01*
G75*
G02*
X140100000Y-71110000I0J100000D01*
G01*
X140100000Y-70850000D01*
G75*
G02*
X140200000Y-70750000I100000J0D01*
G01*
X140400000Y-70750000D01*
G75*
G02*
X140500000Y-70850000I0J-100000D01*
G01*
X140500000Y-71110000D01*
G75*
G02*
X140400000Y-71210000I-100000J0D01*
G01*
G37*
G04 #@! TD*
G04 #@! TO.C,C13*
G36*
G01*
X112000000Y-70910000D02*
X111800000Y-70910000D01*
G75*
G02*
X111700000Y-70810000I0J100000D01*
G01*
X111700000Y-70550000D01*
G75*
G02*
X111800000Y-70450000I100000J0D01*
G01*
X112000000Y-70450000D01*
G75*
G02*
X112100000Y-70550000I0J-100000D01*
G01*
X112100000Y-70810000D01*
G75*
G02*
X112000000Y-70910000I-100000J0D01*
G01*
G37*
G36*
G01*
X112000000Y-71550000D02*
X111800000Y-71550000D01*
G75*
G02*
X111700000Y-71450000I0J100000D01*
G01*
X111700000Y-71190000D01*
G75*
G02*
X111800000Y-71090000I100000J0D01*
G01*
X112000000Y-71090000D01*
G75*
G02*
X112100000Y-71190000I0J-100000D01*
G01*
X112100000Y-71450000D01*
G75*
G02*
X112000000Y-71550000I-100000J0D01*
G01*
G37*
G04 #@! TD*
G04 #@! TO.C,C14*
G36*
G01*
X143050000Y-119400000D02*
X143050000Y-119600000D01*
G75*
G02*
X142950000Y-119700000I-100000J0D01*
G01*
X142690000Y-119700000D01*
G75*
G02*
X142590000Y-119600000I0J100000D01*
G01*
X142590000Y-119400000D01*
G75*
G02*
X142690000Y-119300000I100000J0D01*
G01*
X142950000Y-119300000D01*
G75*
G02*
X143050000Y-119400000I0J-100000D01*
G01*
G37*
G36*
G01*
X142410000Y-119400000D02*
X142410000Y-119600000D01*
G75*
G02*
X142310000Y-119700000I-100000J0D01*
G01*
X142050000Y-119700000D01*
G75*
G02*
X141950000Y-119600000I0J100000D01*
G01*
X141950000Y-119400000D01*
G75*
G02*
X142050000Y-119300000I100000J0D01*
G01*
X142310000Y-119300000D01*
G75*
G02*
X142410000Y-119400000I0J-100000D01*
G01*
G37*
G04 #@! TD*
G04 #@! TO.C,C15*
G36*
G01*
X143750000Y-120200000D02*
X143750000Y-120400000D01*
G75*
G02*
X143650000Y-120500000I-100000J0D01*
G01*
X143390000Y-120500000D01*
G75*
G02*
X143290000Y-120400000I0J100000D01*
G01*
X143290000Y-120200000D01*
G75*
G02*
X143390000Y-120100000I100000J0D01*
G01*
X143650000Y-120100000D01*
G75*
G02*
X143750000Y-120200000I0J-100000D01*
G01*
G37*
G36*
G01*
X143110000Y-120200000D02*
X143110000Y-120400000D01*
G75*
G02*
X143010000Y-120500000I-100000J0D01*
G01*
X142750000Y-120500000D01*
G75*
G02*
X142650000Y-120400000I0J100000D01*
G01*
X142650000Y-120200000D01*
G75*
G02*
X142750000Y-120100000I100000J0D01*
G01*
X143010000Y-120100000D01*
G75*
G02*
X143110000Y-120200000I0J-100000D01*
G01*
G37*
G04 #@! TD*
G04 #@! TO.C,C16*
G36*
G01*
X141000000Y-127650000D02*
X141200000Y-127650000D01*
G75*
G02*
X141300000Y-127750000I0J-100000D01*
G01*
X141300000Y-128010000D01*
G75*
G02*
X141200000Y-128110000I-100000J0D01*
G01*
X141000000Y-128110000D01*
G75*
G02*
X140900000Y-128010000I0J100000D01*
G01*
X140900000Y-127750000D01*
G75*
G02*
X141000000Y-127650000I100000J0D01*
G01*
G37*
G36*
G01*
X141000000Y-128290000D02*
X141200000Y-128290000D01*
G75*
G02*
X141300000Y-128390000I0J-100000D01*
G01*
X141300000Y-128650000D01*
G75*
G02*
X141200000Y-128750000I-100000J0D01*
G01*
X141000000Y-128750000D01*
G75*
G02*
X140900000Y-128650000I0J100000D01*
G01*
X140900000Y-128390000D01*
G75*
G02*
X141000000Y-128290000I100000J0D01*
G01*
G37*
G04 #@! TD*
G04 #@! TO.C,C17*
G36*
G01*
X180900000Y-126850000D02*
X181100000Y-126850000D01*
G75*
G02*
X181200000Y-126950000I0J-100000D01*
G01*
X181200000Y-127210000D01*
G75*
G02*
X181100000Y-127310000I-100000J0D01*
G01*
X180900000Y-127310000D01*
G75*
G02*
X180800000Y-127210000I0J100000D01*
G01*
X180800000Y-126950000D01*
G75*
G02*
X180900000Y-126850000I100000J0D01*
G01*
G37*
G36*
G01*
X180900000Y-127490000D02*
X181100000Y-127490000D01*
G75*
G02*
X181200000Y-127590000I0J-100000D01*
G01*
X181200000Y-127850000D01*
G75*
G02*
X181100000Y-127950000I-100000J0D01*
G01*
X180900000Y-127950000D01*
G75*
G02*
X180800000Y-127850000I0J100000D01*
G01*
X180800000Y-127590000D01*
G75*
G02*
X180900000Y-127490000I100000J0D01*
G01*
G37*
G04 #@! TD*
G04 #@! TO.C,C18*
G36*
G01*
X175400000Y-126850000D02*
X175600000Y-126850000D01*
G75*
G02*
X175700000Y-126950000I0J-100000D01*
G01*
X175700000Y-127210000D01*
G75*
G02*
X175600000Y-127310000I-100000J0D01*
G01*
X175400000Y-127310000D01*
G75*
G02*
X175300000Y-127210000I0J100000D01*
G01*
X175300000Y-126950000D01*
G75*
G02*
X175400000Y-126850000I100000J0D01*
G01*
G37*
G36*
G01*
X175400000Y-127490000D02*
X175600000Y-127490000D01*
G75*
G02*
X175700000Y-127590000I0J-100000D01*
G01*
X175700000Y-127850000D01*
G75*
G02*
X175600000Y-127950000I-100000J0D01*
G01*
X175400000Y-127950000D01*
G75*
G02*
X175300000Y-127850000I0J100000D01*
G01*
X175300000Y-127590000D01*
G75*
G02*
X175400000Y-127490000I100000J0D01*
G01*
G37*
G04 #@! TD*
G04 #@! TO.C,C19*
G36*
G01*
X169900000Y-127490000D02*
X170100000Y-127490000D01*
G75*
G02*
X170200000Y-127590000I0J-100000D01*
G01*
X170200000Y-127850000D01*
G75*
G02*
X170100000Y-127950000I-100000J0D01*
G01*
X169900000Y-127950000D01*
G75*
G02*
X169800000Y-127850000I0J100000D01*
G01*
X169800000Y-127590000D01*
G75*
G02*
X169900000Y-127490000I100000J0D01*
G01*
G37*
G36*
G01*
X169900000Y-126850000D02*
X170100000Y-126850000D01*
G75*
G02*
X170200000Y-126950000I0J-100000D01*
G01*
X170200000Y-127210000D01*
G75*
G02*
X170100000Y-127310000I-100000J0D01*
G01*
X169900000Y-127310000D01*
G75*
G02*
X169800000Y-127210000I0J100000D01*
G01*
X169800000Y-126950000D01*
G75*
G02*
X169900000Y-126850000I100000J0D01*
G01*
G37*
G04 #@! TD*
G04 #@! TO.C,C20*
G36*
G01*
X164300000Y-127490000D02*
X164500000Y-127490000D01*
G75*
G02*
X164600000Y-127590000I0J-100000D01*
G01*
X164600000Y-127850000D01*
G75*
G02*
X164500000Y-127950000I-100000J0D01*
G01*
X164300000Y-127950000D01*
G75*
G02*
X164200000Y-127850000I0J100000D01*
G01*
X164200000Y-127590000D01*
G75*
G02*
X164300000Y-127490000I100000J0D01*
G01*
G37*
G36*
G01*
X164300000Y-126850000D02*
X164500000Y-126850000D01*
G75*
G02*
X164600000Y-126950000I0J-100000D01*
G01*
X164600000Y-127210000D01*
G75*
G02*
X164500000Y-127310000I-100000J0D01*
G01*
X164300000Y-127310000D01*
G75*
G02*
X164200000Y-127210000I0J100000D01*
G01*
X164200000Y-126950000D01*
G75*
G02*
X164300000Y-126850000I100000J0D01*
G01*
G37*
G04 #@! TD*
G04 #@! TO.C,C21*
G36*
G01*
X158000000Y-127490000D02*
X158200000Y-127490000D01*
G75*
G02*
X158300000Y-127590000I0J-100000D01*
G01*
X158300000Y-127850000D01*
G75*
G02*
X158200000Y-127950000I-100000J0D01*
G01*
X158000000Y-127950000D01*
G75*
G02*
X157900000Y-127850000I0J100000D01*
G01*
X157900000Y-127590000D01*
G75*
G02*
X158000000Y-127490000I100000J0D01*
G01*
G37*
G36*
G01*
X158000000Y-126850000D02*
X158200000Y-126850000D01*
G75*
G02*
X158300000Y-126950000I0J-100000D01*
G01*
X158300000Y-127210000D01*
G75*
G02*
X158200000Y-127310000I-100000J0D01*
G01*
X158000000Y-127310000D01*
G75*
G02*
X157900000Y-127210000I0J100000D01*
G01*
X157900000Y-126950000D01*
G75*
G02*
X158000000Y-126850000I100000J0D01*
G01*
G37*
G04 #@! TD*
G04 #@! TO.C,C22*
G36*
G01*
X186900000Y-127490000D02*
X187100000Y-127490000D01*
G75*
G02*
X187200000Y-127590000I0J-100000D01*
G01*
X187200000Y-127850000D01*
G75*
G02*
X187100000Y-127950000I-100000J0D01*
G01*
X186900000Y-127950000D01*
G75*
G02*
X186800000Y-127850000I0J100000D01*
G01*
X186800000Y-127590000D01*
G75*
G02*
X186900000Y-127490000I100000J0D01*
G01*
G37*
G36*
G01*
X186900000Y-126850000D02*
X187100000Y-126850000D01*
G75*
G02*
X187200000Y-126950000I0J-100000D01*
G01*
X187200000Y-127210000D01*
G75*
G02*
X187100000Y-127310000I-100000J0D01*
G01*
X186900000Y-127310000D01*
G75*
G02*
X186800000Y-127210000I0J100000D01*
G01*
X186800000Y-126950000D01*
G75*
G02*
X186900000Y-126850000I100000J0D01*
G01*
G37*
G04 #@! TD*
D11*
G04 #@! TO.C,IC1*
X166650000Y-79240000D03*
X166650000Y-81160000D03*
X168750000Y-80200000D03*
G04 #@! TD*
D12*
G04 #@! TO.C,IC2*
X99195000Y-124412000D03*
X100465000Y-124412000D03*
X101735000Y-124412000D03*
X103005000Y-124412000D03*
X103005000Y-118988000D03*
X101735000Y-118988000D03*
X100465000Y-118988000D03*
X99195000Y-118988000D03*
G04 #@! TD*
G04 #@! TO.C,IC3*
X103105000Y-80712000D03*
X101835000Y-80712000D03*
X100565000Y-80712000D03*
X99295000Y-80712000D03*
X99295000Y-75288000D03*
X100565000Y-75288000D03*
X101835000Y-75288000D03*
X103105000Y-75288000D03*
G04 #@! TD*
D13*
G04 #@! TO.C,IC4*
X153238000Y-77125000D03*
X153238000Y-77775000D03*
X153238000Y-78425000D03*
X153238000Y-79075000D03*
X153238000Y-79725000D03*
X153238000Y-80375000D03*
X153238000Y-81025000D03*
X153238000Y-81675000D03*
X153238000Y-82325000D03*
X153238000Y-82975000D03*
X153238000Y-83625000D03*
X153238000Y-84275000D03*
X147362000Y-84275000D03*
X147362000Y-83625000D03*
X147362000Y-82975000D03*
X147362000Y-82325000D03*
X147362000Y-81675000D03*
X147362000Y-81025000D03*
X147362000Y-80375000D03*
X147362000Y-79725000D03*
X147362000Y-79075000D03*
X147362000Y-78425000D03*
X147362000Y-77775000D03*
X147362000Y-77125000D03*
G04 #@! TD*
G04 #@! TO.C,IC5*
X153638000Y-124675000D03*
X153638000Y-124025000D03*
X153638000Y-123375000D03*
X153638000Y-122725000D03*
X153638000Y-122075000D03*
X153638000Y-121425000D03*
X153638000Y-120775000D03*
X153638000Y-120125000D03*
X153638000Y-119475000D03*
X153638000Y-118825000D03*
X153638000Y-118175000D03*
X153638000Y-117525000D03*
X147762000Y-117525000D03*
X147762000Y-118175000D03*
X147762000Y-118825000D03*
X147762000Y-119475000D03*
X147762000Y-120125000D03*
X147762000Y-120775000D03*
X147762000Y-121425000D03*
X147762000Y-122075000D03*
X147762000Y-122725000D03*
X147762000Y-123375000D03*
X147762000Y-124025000D03*
X147762000Y-124675000D03*
G04 #@! TD*
D14*
G04 #@! TO.C,J1*
X101050000Y-143950000D03*
D15*
X105000000Y-133700000D03*
X97100000Y-133700000D03*
G04 #@! TD*
G04 #@! TO.C,J2*
X105000000Y-66300000D03*
X97100000Y-66300000D03*
D14*
X101050000Y-56050000D03*
G04 #@! TD*
D16*
G04 #@! TO.C,J3*
X165000000Y-63000000D03*
D17*
X167740000Y-63000000D03*
X170480000Y-63000000D03*
X173220000Y-63000000D03*
X175960000Y-63000000D03*
X166370000Y-60460000D03*
X169110000Y-60460000D03*
X171850000Y-60460000D03*
X174590000Y-60460000D03*
D18*
X157980000Y-61730000D03*
X182980000Y-61730000D03*
G04 #@! TD*
G04 #@! TO.C,J4*
X142980000Y-61730000D03*
X117980000Y-61730000D03*
D17*
X134590000Y-60460000D03*
X131850000Y-60460000D03*
X129110000Y-60460000D03*
X126370000Y-60460000D03*
X135960000Y-63000000D03*
X133220000Y-63000000D03*
X130480000Y-63000000D03*
X127740000Y-63000000D03*
D16*
X125000000Y-63000000D03*
G04 #@! TD*
G04 #@! TO.C,J5*
X136000000Y-137000000D03*
D17*
X133260000Y-137000000D03*
X130520000Y-137000000D03*
X127780000Y-137000000D03*
X125040000Y-137000000D03*
X134630000Y-139540000D03*
X131890000Y-139540000D03*
X129150000Y-139540000D03*
X126410000Y-139540000D03*
D18*
X143020000Y-138270000D03*
X118020000Y-138270000D03*
G04 #@! TD*
G04 #@! TO.C,J6*
X158020000Y-138270000D03*
X183020000Y-138270000D03*
D17*
X166410000Y-139540000D03*
X169150000Y-139540000D03*
X171890000Y-139540000D03*
X174630000Y-139540000D03*
X165040000Y-137000000D03*
X167780000Y-137000000D03*
X170520000Y-137000000D03*
X173260000Y-137000000D03*
D16*
X176000000Y-137000000D03*
G04 #@! TD*
G04 #@! TO.C,R1*
G36*
G01*
X155050000Y-83400000D02*
X155050000Y-83200000D01*
G75*
G02*
X155150000Y-83100000I100000J0D01*
G01*
X155410000Y-83100000D01*
G75*
G02*
X155510000Y-83200000I0J-100000D01*
G01*
X155510000Y-83400000D01*
G75*
G02*
X155410000Y-83500000I-100000J0D01*
G01*
X155150000Y-83500000D01*
G75*
G02*
X155050000Y-83400000I0J100000D01*
G01*
G37*
G36*
G01*
X155690000Y-83400000D02*
X155690000Y-83200000D01*
G75*
G02*
X155790000Y-83100000I100000J0D01*
G01*
X156050000Y-83100000D01*
G75*
G02*
X156150000Y-83200000I0J-100000D01*
G01*
X156150000Y-83400000D01*
G75*
G02*
X156050000Y-83500000I-100000J0D01*
G01*
X155790000Y-83500000D01*
G75*
G02*
X155690000Y-83400000I0J100000D01*
G01*
G37*
G04 #@! TD*
G04 #@! TO.C,R2*
G36*
G01*
X164100000Y-71210000D02*
X163900000Y-71210000D01*
G75*
G02*
X163800000Y-71110000I0J100000D01*
G01*
X163800000Y-70850000D01*
G75*
G02*
X163900000Y-70750000I100000J0D01*
G01*
X164100000Y-70750000D01*
G75*
G02*
X164200000Y-70850000I0J-100000D01*
G01*
X164200000Y-71110000D01*
G75*
G02*
X164100000Y-71210000I-100000J0D01*
G01*
G37*
G36*
G01*
X164100000Y-71850000D02*
X163900000Y-71850000D01*
G75*
G02*
X163800000Y-71750000I0J100000D01*
G01*
X163800000Y-71490000D01*
G75*
G02*
X163900000Y-71390000I100000J0D01*
G01*
X164100000Y-71390000D01*
G75*
G02*
X164200000Y-71490000I0J-100000D01*
G01*
X164200000Y-71750000D01*
G75*
G02*
X164100000Y-71850000I-100000J0D01*
G01*
G37*
G04 #@! TD*
G04 #@! TO.C,R3*
G36*
G01*
X164900000Y-71390000D02*
X165100000Y-71390000D01*
G75*
G02*
X165200000Y-71490000I0J-100000D01*
G01*
X165200000Y-71750000D01*
G75*
G02*
X165100000Y-71850000I-100000J0D01*
G01*
X164900000Y-71850000D01*
G75*
G02*
X164800000Y-71750000I0J100000D01*
G01*
X164800000Y-71490000D01*
G75*
G02*
X164900000Y-71390000I100000J0D01*
G01*
G37*
G36*
G01*
X164900000Y-70750000D02*
X165100000Y-70750000D01*
G75*
G02*
X165200000Y-70850000I0J-100000D01*
G01*
X165200000Y-71110000D01*
G75*
G02*
X165100000Y-71210000I-100000J0D01*
G01*
X164900000Y-71210000D01*
G75*
G02*
X164800000Y-71110000I0J100000D01*
G01*
X164800000Y-70850000D01*
G75*
G02*
X164900000Y-70750000I100000J0D01*
G01*
G37*
G04 #@! TD*
G04 #@! TO.C,R4*
G36*
G01*
X119200000Y-71290000D02*
X119400000Y-71290000D01*
G75*
G02*
X119500000Y-71390000I0J-100000D01*
G01*
X119500000Y-71650000D01*
G75*
G02*
X119400000Y-71750000I-100000J0D01*
G01*
X119200000Y-71750000D01*
G75*
G02*
X119100000Y-71650000I0J100000D01*
G01*
X119100000Y-71390000D01*
G75*
G02*
X119200000Y-71290000I100000J0D01*
G01*
G37*
G36*
G01*
X119200000Y-70650000D02*
X119400000Y-70650000D01*
G75*
G02*
X119500000Y-70750000I0J-100000D01*
G01*
X119500000Y-71010000D01*
G75*
G02*
X119400000Y-71110000I-100000J0D01*
G01*
X119200000Y-71110000D01*
G75*
G02*
X119100000Y-71010000I0J100000D01*
G01*
X119100000Y-70750000D01*
G75*
G02*
X119200000Y-70650000I100000J0D01*
G01*
G37*
G04 #@! TD*
G04 #@! TO.C,R5*
G36*
G01*
X118400000Y-71750000D02*
X118200000Y-71750000D01*
G75*
G02*
X118100000Y-71650000I0J100000D01*
G01*
X118100000Y-71390000D01*
G75*
G02*
X118200000Y-71290000I100000J0D01*
G01*
X118400000Y-71290000D01*
G75*
G02*
X118500000Y-71390000I0J-100000D01*
G01*
X118500000Y-71650000D01*
G75*
G02*
X118400000Y-71750000I-100000J0D01*
G01*
G37*
G36*
G01*
X118400000Y-71110000D02*
X118200000Y-71110000D01*
G75*
G02*
X118100000Y-71010000I0J100000D01*
G01*
X118100000Y-70750000D01*
G75*
G02*
X118200000Y-70650000I100000J0D01*
G01*
X118400000Y-70650000D01*
G75*
G02*
X118500000Y-70750000I0J-100000D01*
G01*
X118500000Y-71010000D01*
G75*
G02*
X118400000Y-71110000I-100000J0D01*
G01*
G37*
G04 #@! TD*
G04 #@! TO.C,R6*
G36*
G01*
X124300000Y-70750000D02*
X124500000Y-70750000D01*
G75*
G02*
X124600000Y-70850000I0J-100000D01*
G01*
X124600000Y-71110000D01*
G75*
G02*
X124500000Y-71210000I-100000J0D01*
G01*
X124300000Y-71210000D01*
G75*
G02*
X124200000Y-71110000I0J100000D01*
G01*
X124200000Y-70850000D01*
G75*
G02*
X124300000Y-70750000I100000J0D01*
G01*
G37*
G36*
G01*
X124300000Y-71390000D02*
X124500000Y-71390000D01*
G75*
G02*
X124600000Y-71490000I0J-100000D01*
G01*
X124600000Y-71750000D01*
G75*
G02*
X124500000Y-71850000I-100000J0D01*
G01*
X124300000Y-71850000D01*
G75*
G02*
X124200000Y-71750000I0J100000D01*
G01*
X124200000Y-71490000D01*
G75*
G02*
X124300000Y-71390000I100000J0D01*
G01*
G37*
G04 #@! TD*
G04 #@! TO.C,R7*
G36*
G01*
X123500000Y-71850000D02*
X123300000Y-71850000D01*
G75*
G02*
X123200000Y-71750000I0J100000D01*
G01*
X123200000Y-71490000D01*
G75*
G02*
X123300000Y-71390000I100000J0D01*
G01*
X123500000Y-71390000D01*
G75*
G02*
X123600000Y-71490000I0J-100000D01*
G01*
X123600000Y-71750000D01*
G75*
G02*
X123500000Y-71850000I-100000J0D01*
G01*
G37*
G36*
G01*
X123500000Y-71210000D02*
X123300000Y-71210000D01*
G75*
G02*
X123200000Y-71110000I0J100000D01*
G01*
X123200000Y-70850000D01*
G75*
G02*
X123300000Y-70750000I100000J0D01*
G01*
X123500000Y-70750000D01*
G75*
G02*
X123600000Y-70850000I0J-100000D01*
G01*
X123600000Y-71110000D01*
G75*
G02*
X123500000Y-71210000I-100000J0D01*
G01*
G37*
G04 #@! TD*
G04 #@! TO.C,R8*
G36*
G01*
X130000000Y-70850000D02*
X130200000Y-70850000D01*
G75*
G02*
X130300000Y-70950000I0J-100000D01*
G01*
X130300000Y-71210000D01*
G75*
G02*
X130200000Y-71310000I-100000J0D01*
G01*
X130000000Y-71310000D01*
G75*
G02*
X129900000Y-71210000I0J100000D01*
G01*
X129900000Y-70950000D01*
G75*
G02*
X130000000Y-70850000I100000J0D01*
G01*
G37*
G36*
G01*
X130000000Y-71490000D02*
X130200000Y-71490000D01*
G75*
G02*
X130300000Y-71590000I0J-100000D01*
G01*
X130300000Y-71850000D01*
G75*
G02*
X130200000Y-71950000I-100000J0D01*
G01*
X130000000Y-71950000D01*
G75*
G02*
X129900000Y-71850000I0J100000D01*
G01*
X129900000Y-71590000D01*
G75*
G02*
X130000000Y-71490000I100000J0D01*
G01*
G37*
G04 #@! TD*
G04 #@! TO.C,R9*
G36*
G01*
X129200000Y-71310000D02*
X129000000Y-71310000D01*
G75*
G02*
X128900000Y-71210000I0J100000D01*
G01*
X128900000Y-70950000D01*
G75*
G02*
X129000000Y-70850000I100000J0D01*
G01*
X129200000Y-70850000D01*
G75*
G02*
X129300000Y-70950000I0J-100000D01*
G01*
X129300000Y-71210000D01*
G75*
G02*
X129200000Y-71310000I-100000J0D01*
G01*
G37*
G36*
G01*
X129200000Y-71950000D02*
X129000000Y-71950000D01*
G75*
G02*
X128900000Y-71850000I0J100000D01*
G01*
X128900000Y-71590000D01*
G75*
G02*
X129000000Y-71490000I100000J0D01*
G01*
X129200000Y-71490000D01*
G75*
G02*
X129300000Y-71590000I0J-100000D01*
G01*
X129300000Y-71850000D01*
G75*
G02*
X129200000Y-71950000I-100000J0D01*
G01*
G37*
G04 #@! TD*
G04 #@! TO.C,R10*
G36*
G01*
X136000000Y-70750000D02*
X136200000Y-70750000D01*
G75*
G02*
X136300000Y-70850000I0J-100000D01*
G01*
X136300000Y-71110000D01*
G75*
G02*
X136200000Y-71210000I-100000J0D01*
G01*
X136000000Y-71210000D01*
G75*
G02*
X135900000Y-71110000I0J100000D01*
G01*
X135900000Y-70850000D01*
G75*
G02*
X136000000Y-70750000I100000J0D01*
G01*
G37*
G36*
G01*
X136000000Y-71390000D02*
X136200000Y-71390000D01*
G75*
G02*
X136300000Y-71490000I0J-100000D01*
G01*
X136300000Y-71750000D01*
G75*
G02*
X136200000Y-71850000I-100000J0D01*
G01*
X136000000Y-71850000D01*
G75*
G02*
X135900000Y-71750000I0J100000D01*
G01*
X135900000Y-71490000D01*
G75*
G02*
X136000000Y-71390000I100000J0D01*
G01*
G37*
G04 #@! TD*
G04 #@! TO.C,R11*
G36*
G01*
X135200000Y-71210000D02*
X135000000Y-71210000D01*
G75*
G02*
X134900000Y-71110000I0J100000D01*
G01*
X134900000Y-70850000D01*
G75*
G02*
X135000000Y-70750000I100000J0D01*
G01*
X135200000Y-70750000D01*
G75*
G02*
X135300000Y-70850000I0J-100000D01*
G01*
X135300000Y-71110000D01*
G75*
G02*
X135200000Y-71210000I-100000J0D01*
G01*
G37*
G36*
G01*
X135200000Y-71850000D02*
X135000000Y-71850000D01*
G75*
G02*
X134900000Y-71750000I0J100000D01*
G01*
X134900000Y-71490000D01*
G75*
G02*
X135000000Y-71390000I100000J0D01*
G01*
X135200000Y-71390000D01*
G75*
G02*
X135300000Y-71490000I0J-100000D01*
G01*
X135300000Y-71750000D01*
G75*
G02*
X135200000Y-71850000I-100000J0D01*
G01*
G37*
G04 #@! TD*
G04 #@! TO.C,R12*
G36*
G01*
X142100000Y-71390000D02*
X142300000Y-71390000D01*
G75*
G02*
X142400000Y-71490000I0J-100000D01*
G01*
X142400000Y-71750000D01*
G75*
G02*
X142300000Y-71850000I-100000J0D01*
G01*
X142100000Y-71850000D01*
G75*
G02*
X142000000Y-71750000I0J100000D01*
G01*
X142000000Y-71490000D01*
G75*
G02*
X142100000Y-71390000I100000J0D01*
G01*
G37*
G36*
G01*
X142100000Y-70750000D02*
X142300000Y-70750000D01*
G75*
G02*
X142400000Y-70850000I0J-100000D01*
G01*
X142400000Y-71110000D01*
G75*
G02*
X142300000Y-71210000I-100000J0D01*
G01*
X142100000Y-71210000D01*
G75*
G02*
X142000000Y-71110000I0J100000D01*
G01*
X142000000Y-70850000D01*
G75*
G02*
X142100000Y-70750000I100000J0D01*
G01*
G37*
G04 #@! TD*
G04 #@! TO.C,R13*
G36*
G01*
X141300000Y-71210000D02*
X141100000Y-71210000D01*
G75*
G02*
X141000000Y-71110000I0J100000D01*
G01*
X141000000Y-70850000D01*
G75*
G02*
X141100000Y-70750000I100000J0D01*
G01*
X141300000Y-70750000D01*
G75*
G02*
X141400000Y-70850000I0J-100000D01*
G01*
X141400000Y-71110000D01*
G75*
G02*
X141300000Y-71210000I-100000J0D01*
G01*
G37*
G36*
G01*
X141300000Y-71850000D02*
X141100000Y-71850000D01*
G75*
G02*
X141000000Y-71750000I0J100000D01*
G01*
X141000000Y-71490000D01*
G75*
G02*
X141100000Y-71390000I100000J0D01*
G01*
X141300000Y-71390000D01*
G75*
G02*
X141400000Y-71490000I0J-100000D01*
G01*
X141400000Y-71750000D01*
G75*
G02*
X141300000Y-71850000I-100000J0D01*
G01*
G37*
G04 #@! TD*
G04 #@! TO.C,R14*
G36*
G01*
X113700000Y-70450000D02*
X113900000Y-70450000D01*
G75*
G02*
X114000000Y-70550000I0J-100000D01*
G01*
X114000000Y-70810000D01*
G75*
G02*
X113900000Y-70910000I-100000J0D01*
G01*
X113700000Y-70910000D01*
G75*
G02*
X113600000Y-70810000I0J100000D01*
G01*
X113600000Y-70550000D01*
G75*
G02*
X113700000Y-70450000I100000J0D01*
G01*
G37*
G36*
G01*
X113700000Y-71090000D02*
X113900000Y-71090000D01*
G75*
G02*
X114000000Y-71190000I0J-100000D01*
G01*
X114000000Y-71450000D01*
G75*
G02*
X113900000Y-71550000I-100000J0D01*
G01*
X113700000Y-71550000D01*
G75*
G02*
X113600000Y-71450000I0J100000D01*
G01*
X113600000Y-71190000D01*
G75*
G02*
X113700000Y-71090000I100000J0D01*
G01*
G37*
G04 #@! TD*
G04 #@! TO.C,R15*
G36*
G01*
X112900000Y-71550000D02*
X112700000Y-71550000D01*
G75*
G02*
X112600000Y-71450000I0J100000D01*
G01*
X112600000Y-71190000D01*
G75*
G02*
X112700000Y-71090000I100000J0D01*
G01*
X112900000Y-71090000D01*
G75*
G02*
X113000000Y-71190000I0J-100000D01*
G01*
X113000000Y-71450000D01*
G75*
G02*
X112900000Y-71550000I-100000J0D01*
G01*
G37*
G36*
G01*
X112900000Y-70910000D02*
X112700000Y-70910000D01*
G75*
G02*
X112600000Y-70810000I0J100000D01*
G01*
X112600000Y-70550000D01*
G75*
G02*
X112700000Y-70450000I100000J0D01*
G01*
X112900000Y-70450000D01*
G75*
G02*
X113000000Y-70550000I0J-100000D01*
G01*
X113000000Y-70810000D01*
G75*
G02*
X112900000Y-70910000I-100000J0D01*
G01*
G37*
G04 #@! TD*
G04 #@! TO.C,R16*
G36*
G01*
X146250000Y-118700000D02*
X146250000Y-118900000D01*
G75*
G02*
X146150000Y-119000000I-100000J0D01*
G01*
X145890000Y-119000000D01*
G75*
G02*
X145790000Y-118900000I0J100000D01*
G01*
X145790000Y-118700000D01*
G75*
G02*
X145890000Y-118600000I100000J0D01*
G01*
X146150000Y-118600000D01*
G75*
G02*
X146250000Y-118700000I0J-100000D01*
G01*
G37*
G36*
G01*
X145610000Y-118700000D02*
X145610000Y-118900000D01*
G75*
G02*
X145510000Y-119000000I-100000J0D01*
G01*
X145250000Y-119000000D01*
G75*
G02*
X145150000Y-118900000I0J100000D01*
G01*
X145150000Y-118700000D01*
G75*
G02*
X145250000Y-118600000I100000J0D01*
G01*
X145510000Y-118600000D01*
G75*
G02*
X145610000Y-118700000I0J-100000D01*
G01*
G37*
G04 #@! TD*
G04 #@! TO.C,R17*
G36*
G01*
X140100000Y-128290000D02*
X140300000Y-128290000D01*
G75*
G02*
X140400000Y-128390000I0J-100000D01*
G01*
X140400000Y-128650000D01*
G75*
G02*
X140300000Y-128750000I-100000J0D01*
G01*
X140100000Y-128750000D01*
G75*
G02*
X140000000Y-128650000I0J100000D01*
G01*
X140000000Y-128390000D01*
G75*
G02*
X140100000Y-128290000I100000J0D01*
G01*
G37*
G36*
G01*
X140100000Y-127650000D02*
X140300000Y-127650000D01*
G75*
G02*
X140400000Y-127750000I0J-100000D01*
G01*
X140400000Y-128010000D01*
G75*
G02*
X140300000Y-128110000I-100000J0D01*
G01*
X140100000Y-128110000D01*
G75*
G02*
X140000000Y-128010000I0J100000D01*
G01*
X140000000Y-127750000D01*
G75*
G02*
X140100000Y-127650000I100000J0D01*
G01*
G37*
G04 #@! TD*
G04 #@! TO.C,R18*
G36*
G01*
X139300000Y-128110000D02*
X139100000Y-128110000D01*
G75*
G02*
X139000000Y-128010000I0J100000D01*
G01*
X139000000Y-127750000D01*
G75*
G02*
X139100000Y-127650000I100000J0D01*
G01*
X139300000Y-127650000D01*
G75*
G02*
X139400000Y-127750000I0J-100000D01*
G01*
X139400000Y-128010000D01*
G75*
G02*
X139300000Y-128110000I-100000J0D01*
G01*
G37*
G36*
G01*
X139300000Y-128750000D02*
X139100000Y-128750000D01*
G75*
G02*
X139000000Y-128650000I0J100000D01*
G01*
X139000000Y-128390000D01*
G75*
G02*
X139100000Y-128290000I100000J0D01*
G01*
X139300000Y-128290000D01*
G75*
G02*
X139400000Y-128390000I0J-100000D01*
G01*
X139400000Y-128650000D01*
G75*
G02*
X139300000Y-128750000I-100000J0D01*
G01*
G37*
G04 #@! TD*
G04 #@! TO.C,R19*
G36*
G01*
X182800000Y-127310000D02*
X182600000Y-127310000D01*
G75*
G02*
X182500000Y-127210000I0J100000D01*
G01*
X182500000Y-126950000D01*
G75*
G02*
X182600000Y-126850000I100000J0D01*
G01*
X182800000Y-126850000D01*
G75*
G02*
X182900000Y-126950000I0J-100000D01*
G01*
X182900000Y-127210000D01*
G75*
G02*
X182800000Y-127310000I-100000J0D01*
G01*
G37*
G36*
G01*
X182800000Y-127950000D02*
X182600000Y-127950000D01*
G75*
G02*
X182500000Y-127850000I0J100000D01*
G01*
X182500000Y-127590000D01*
G75*
G02*
X182600000Y-127490000I100000J0D01*
G01*
X182800000Y-127490000D01*
G75*
G02*
X182900000Y-127590000I0J-100000D01*
G01*
X182900000Y-127850000D01*
G75*
G02*
X182800000Y-127950000I-100000J0D01*
G01*
G37*
G04 #@! TD*
G04 #@! TO.C,R20*
G36*
G01*
X181700000Y-126850000D02*
X181900000Y-126850000D01*
G75*
G02*
X182000000Y-126950000I0J-100000D01*
G01*
X182000000Y-127210000D01*
G75*
G02*
X181900000Y-127310000I-100000J0D01*
G01*
X181700000Y-127310000D01*
G75*
G02*
X181600000Y-127210000I0J100000D01*
G01*
X181600000Y-126950000D01*
G75*
G02*
X181700000Y-126850000I100000J0D01*
G01*
G37*
G36*
G01*
X181700000Y-127490000D02*
X181900000Y-127490000D01*
G75*
G02*
X182000000Y-127590000I0J-100000D01*
G01*
X182000000Y-127850000D01*
G75*
G02*
X181900000Y-127950000I-100000J0D01*
G01*
X181700000Y-127950000D01*
G75*
G02*
X181600000Y-127850000I0J100000D01*
G01*
X181600000Y-127590000D01*
G75*
G02*
X181700000Y-127490000I100000J0D01*
G01*
G37*
G04 #@! TD*
G04 #@! TO.C,R21*
G36*
G01*
X177300000Y-127950000D02*
X177100000Y-127950000D01*
G75*
G02*
X177000000Y-127850000I0J100000D01*
G01*
X177000000Y-127590000D01*
G75*
G02*
X177100000Y-127490000I100000J0D01*
G01*
X177300000Y-127490000D01*
G75*
G02*
X177400000Y-127590000I0J-100000D01*
G01*
X177400000Y-127850000D01*
G75*
G02*
X177300000Y-127950000I-100000J0D01*
G01*
G37*
G36*
G01*
X177300000Y-127310000D02*
X177100000Y-127310000D01*
G75*
G02*
X177000000Y-127210000I0J100000D01*
G01*
X177000000Y-126950000D01*
G75*
G02*
X177100000Y-126850000I100000J0D01*
G01*
X177300000Y-126850000D01*
G75*
G02*
X177400000Y-126950000I0J-100000D01*
G01*
X177400000Y-127210000D01*
G75*
G02*
X177300000Y-127310000I-100000J0D01*
G01*
G37*
G04 #@! TD*
G04 #@! TO.C,R22*
G36*
G01*
X176200000Y-126850000D02*
X176400000Y-126850000D01*
G75*
G02*
X176500000Y-126950000I0J-100000D01*
G01*
X176500000Y-127210000D01*
G75*
G02*
X176400000Y-127310000I-100000J0D01*
G01*
X176200000Y-127310000D01*
G75*
G02*
X176100000Y-127210000I0J100000D01*
G01*
X176100000Y-126950000D01*
G75*
G02*
X176200000Y-126850000I100000J0D01*
G01*
G37*
G36*
G01*
X176200000Y-127490000D02*
X176400000Y-127490000D01*
G75*
G02*
X176500000Y-127590000I0J-100000D01*
G01*
X176500000Y-127850000D01*
G75*
G02*
X176400000Y-127950000I-100000J0D01*
G01*
X176200000Y-127950000D01*
G75*
G02*
X176100000Y-127850000I0J100000D01*
G01*
X176100000Y-127590000D01*
G75*
G02*
X176200000Y-127490000I100000J0D01*
G01*
G37*
G04 #@! TD*
G04 #@! TO.C,R23*
G36*
G01*
X171800000Y-127310000D02*
X171600000Y-127310000D01*
G75*
G02*
X171500000Y-127210000I0J100000D01*
G01*
X171500000Y-126950000D01*
G75*
G02*
X171600000Y-126850000I100000J0D01*
G01*
X171800000Y-126850000D01*
G75*
G02*
X171900000Y-126950000I0J-100000D01*
G01*
X171900000Y-127210000D01*
G75*
G02*
X171800000Y-127310000I-100000J0D01*
G01*
G37*
G36*
G01*
X171800000Y-127950000D02*
X171600000Y-127950000D01*
G75*
G02*
X171500000Y-127850000I0J100000D01*
G01*
X171500000Y-127590000D01*
G75*
G02*
X171600000Y-127490000I100000J0D01*
G01*
X171800000Y-127490000D01*
G75*
G02*
X171900000Y-127590000I0J-100000D01*
G01*
X171900000Y-127850000D01*
G75*
G02*
X171800000Y-127950000I-100000J0D01*
G01*
G37*
G04 #@! TD*
G04 #@! TO.C,R24*
G36*
G01*
X170700000Y-127490000D02*
X170900000Y-127490000D01*
G75*
G02*
X171000000Y-127590000I0J-100000D01*
G01*
X171000000Y-127850000D01*
G75*
G02*
X170900000Y-127950000I-100000J0D01*
G01*
X170700000Y-127950000D01*
G75*
G02*
X170600000Y-127850000I0J100000D01*
G01*
X170600000Y-127590000D01*
G75*
G02*
X170700000Y-127490000I100000J0D01*
G01*
G37*
G36*
G01*
X170700000Y-126850000D02*
X170900000Y-126850000D01*
G75*
G02*
X171000000Y-126950000I0J-100000D01*
G01*
X171000000Y-127210000D01*
G75*
G02*
X170900000Y-127310000I-100000J0D01*
G01*
X170700000Y-127310000D01*
G75*
G02*
X170600000Y-127210000I0J100000D01*
G01*
X170600000Y-126950000D01*
G75*
G02*
X170700000Y-126850000I100000J0D01*
G01*
G37*
G04 #@! TD*
G04 #@! TO.C,R25*
G36*
G01*
X166200000Y-127950000D02*
X166000000Y-127950000D01*
G75*
G02*
X165900000Y-127850000I0J100000D01*
G01*
X165900000Y-127590000D01*
G75*
G02*
X166000000Y-127490000I100000J0D01*
G01*
X166200000Y-127490000D01*
G75*
G02*
X166300000Y-127590000I0J-100000D01*
G01*
X166300000Y-127850000D01*
G75*
G02*
X166200000Y-127950000I-100000J0D01*
G01*
G37*
G36*
G01*
X166200000Y-127310000D02*
X166000000Y-127310000D01*
G75*
G02*
X165900000Y-127210000I0J100000D01*
G01*
X165900000Y-126950000D01*
G75*
G02*
X166000000Y-126850000I100000J0D01*
G01*
X166200000Y-126850000D01*
G75*
G02*
X166300000Y-126950000I0J-100000D01*
G01*
X166300000Y-127210000D01*
G75*
G02*
X166200000Y-127310000I-100000J0D01*
G01*
G37*
G04 #@! TD*
G04 #@! TO.C,R26*
G36*
G01*
X165100000Y-126850000D02*
X165300000Y-126850000D01*
G75*
G02*
X165400000Y-126950000I0J-100000D01*
G01*
X165400000Y-127210000D01*
G75*
G02*
X165300000Y-127310000I-100000J0D01*
G01*
X165100000Y-127310000D01*
G75*
G02*
X165000000Y-127210000I0J100000D01*
G01*
X165000000Y-126950000D01*
G75*
G02*
X165100000Y-126850000I100000J0D01*
G01*
G37*
G36*
G01*
X165100000Y-127490000D02*
X165300000Y-127490000D01*
G75*
G02*
X165400000Y-127590000I0J-100000D01*
G01*
X165400000Y-127850000D01*
G75*
G02*
X165300000Y-127950000I-100000J0D01*
G01*
X165100000Y-127950000D01*
G75*
G02*
X165000000Y-127850000I0J100000D01*
G01*
X165000000Y-127590000D01*
G75*
G02*
X165100000Y-127490000I100000J0D01*
G01*
G37*
G04 #@! TD*
G04 #@! TO.C,R27*
G36*
G01*
X159900000Y-127310000D02*
X159700000Y-127310000D01*
G75*
G02*
X159600000Y-127210000I0J100000D01*
G01*
X159600000Y-126950000D01*
G75*
G02*
X159700000Y-126850000I100000J0D01*
G01*
X159900000Y-126850000D01*
G75*
G02*
X160000000Y-126950000I0J-100000D01*
G01*
X160000000Y-127210000D01*
G75*
G02*
X159900000Y-127310000I-100000J0D01*
G01*
G37*
G36*
G01*
X159900000Y-127950000D02*
X159700000Y-127950000D01*
G75*
G02*
X159600000Y-127850000I0J100000D01*
G01*
X159600000Y-127590000D01*
G75*
G02*
X159700000Y-127490000I100000J0D01*
G01*
X159900000Y-127490000D01*
G75*
G02*
X160000000Y-127590000I0J-100000D01*
G01*
X160000000Y-127850000D01*
G75*
G02*
X159900000Y-127950000I-100000J0D01*
G01*
G37*
G04 #@! TD*
G04 #@! TO.C,R28*
G36*
G01*
X158800000Y-127490000D02*
X159000000Y-127490000D01*
G75*
G02*
X159100000Y-127590000I0J-100000D01*
G01*
X159100000Y-127850000D01*
G75*
G02*
X159000000Y-127950000I-100000J0D01*
G01*
X158800000Y-127950000D01*
G75*
G02*
X158700000Y-127850000I0J100000D01*
G01*
X158700000Y-127590000D01*
G75*
G02*
X158800000Y-127490000I100000J0D01*
G01*
G37*
G36*
G01*
X158800000Y-126850000D02*
X159000000Y-126850000D01*
G75*
G02*
X159100000Y-126950000I0J-100000D01*
G01*
X159100000Y-127210000D01*
G75*
G02*
X159000000Y-127310000I-100000J0D01*
G01*
X158800000Y-127310000D01*
G75*
G02*
X158700000Y-127210000I0J100000D01*
G01*
X158700000Y-126950000D01*
G75*
G02*
X158800000Y-126850000I100000J0D01*
G01*
G37*
G04 #@! TD*
G04 #@! TO.C,R29*
G36*
G01*
X188800000Y-127950000D02*
X188600000Y-127950000D01*
G75*
G02*
X188500000Y-127850000I0J100000D01*
G01*
X188500000Y-127590000D01*
G75*
G02*
X188600000Y-127490000I100000J0D01*
G01*
X188800000Y-127490000D01*
G75*
G02*
X188900000Y-127590000I0J-100000D01*
G01*
X188900000Y-127850000D01*
G75*
G02*
X188800000Y-127950000I-100000J0D01*
G01*
G37*
G36*
G01*
X188800000Y-127310000D02*
X188600000Y-127310000D01*
G75*
G02*
X188500000Y-127210000I0J100000D01*
G01*
X188500000Y-126950000D01*
G75*
G02*
X188600000Y-126850000I100000J0D01*
G01*
X188800000Y-126850000D01*
G75*
G02*
X188900000Y-126950000I0J-100000D01*
G01*
X188900000Y-127210000D01*
G75*
G02*
X188800000Y-127310000I-100000J0D01*
G01*
G37*
G04 #@! TD*
G04 #@! TO.C,R30*
G36*
G01*
X187700000Y-127490000D02*
X187900000Y-127490000D01*
G75*
G02*
X188000000Y-127590000I0J-100000D01*
G01*
X188000000Y-127850000D01*
G75*
G02*
X187900000Y-127950000I-100000J0D01*
G01*
X187700000Y-127950000D01*
G75*
G02*
X187600000Y-127850000I0J100000D01*
G01*
X187600000Y-127590000D01*
G75*
G02*
X187700000Y-127490000I100000J0D01*
G01*
G37*
G36*
G01*
X187700000Y-126850000D02*
X187900000Y-126850000D01*
G75*
G02*
X188000000Y-126950000I0J-100000D01*
G01*
X188000000Y-127210000D01*
G75*
G02*
X187900000Y-127310000I-100000J0D01*
G01*
X187700000Y-127310000D01*
G75*
G02*
X187600000Y-127210000I0J100000D01*
G01*
X187600000Y-126950000D01*
G75*
G02*
X187700000Y-126850000I100000J0D01*
G01*
G37*
G04 #@! TD*
D19*
G04 #@! TO.C,U1*
X197117820Y-108097680D03*
X194577820Y-108097680D03*
X192037820Y-108097680D03*
X189497820Y-108097680D03*
X186957820Y-108097680D03*
X184417820Y-108097680D03*
X181877820Y-108097680D03*
X181877820Y-91933120D03*
X184417820Y-91933120D03*
X186957820Y-91933120D03*
X189497820Y-91933120D03*
X192037820Y-91933120D03*
X194577820Y-91933120D03*
X197117820Y-91933120D03*
D20*
X180800000Y-98800000D03*
X180800000Y-101350000D03*
D21*
X197804187Y-98798803D03*
X197804187Y-101338803D03*
X195264187Y-98798803D03*
X195264187Y-101338803D03*
G04 #@! TD*
G04 #@! TO.C,C23*
G36*
G01*
X134200000Y-124550000D02*
X134000000Y-124550000D01*
G75*
G02*
X133900000Y-124450000I0J100000D01*
G01*
X133900000Y-124190000D01*
G75*
G02*
X134000000Y-124090000I100000J0D01*
G01*
X134200000Y-124090000D01*
G75*
G02*
X134300000Y-124190000I0J-100000D01*
G01*
X134300000Y-124450000D01*
G75*
G02*
X134200000Y-124550000I-100000J0D01*
G01*
G37*
G36*
G01*
X134200000Y-123910000D02*
X134000000Y-123910000D01*
G75*
G02*
X133900000Y-123810000I0J100000D01*
G01*
X133900000Y-123550000D01*
G75*
G02*
X134000000Y-123450000I100000J0D01*
G01*
X134200000Y-123450000D01*
G75*
G02*
X134300000Y-123550000I0J-100000D01*
G01*
X134300000Y-123810000D01*
G75*
G02*
X134200000Y-123910000I-100000J0D01*
G01*
G37*
G04 #@! TD*
G04 #@! TO.C,C24*
G36*
G01*
X135600000Y-121490000D02*
X135800000Y-121490000D01*
G75*
G02*
X135900000Y-121590000I0J-100000D01*
G01*
X135900000Y-121850000D01*
G75*
G02*
X135800000Y-121950000I-100000J0D01*
G01*
X135600000Y-121950000D01*
G75*
G02*
X135500000Y-121850000I0J100000D01*
G01*
X135500000Y-121590000D01*
G75*
G02*
X135600000Y-121490000I100000J0D01*
G01*
G37*
G36*
G01*
X135600000Y-120850000D02*
X135800000Y-120850000D01*
G75*
G02*
X135900000Y-120950000I0J-100000D01*
G01*
X135900000Y-121210000D01*
G75*
G02*
X135800000Y-121310000I-100000J0D01*
G01*
X135600000Y-121310000D01*
G75*
G02*
X135500000Y-121210000I0J100000D01*
G01*
X135500000Y-120950000D01*
G75*
G02*
X135600000Y-120850000I100000J0D01*
G01*
G37*
G04 #@! TD*
D11*
G04 #@! TO.C,IC6*
X132750000Y-122360000D03*
X132750000Y-120440000D03*
X130650000Y-121400000D03*
G04 #@! TD*
D22*
G04 #@! TO.C,D1*
X167100000Y-68800000D03*
X169300000Y-68800000D03*
G04 #@! TD*
G04 #@! TO.C,D2*
X123000000Y-68700000D03*
X120800000Y-68700000D03*
G04 #@! TD*
G04 #@! TO.C,D3*
X126000000Y-68900000D03*
X128200000Y-68900000D03*
G04 #@! TD*
G04 #@! TO.C,D4*
X134200000Y-68800000D03*
X132000000Y-68800000D03*
G04 #@! TD*
G04 #@! TO.C,D5*
X137800000Y-68800000D03*
X140000000Y-68800000D03*
G04 #@! TD*
G04 #@! TO.C,D6*
X145900000Y-68800000D03*
X143700000Y-68800000D03*
G04 #@! TD*
G04 #@! TO.C,D7*
X115600000Y-68800000D03*
X117800000Y-68800000D03*
G04 #@! TD*
G04 #@! TO.C,D8*
X132400000Y-130400000D03*
X134600000Y-130400000D03*
G04 #@! TD*
G04 #@! TO.C,D9*
X180800000Y-130900000D03*
X178600000Y-130900000D03*
G04 #@! TD*
G04 #@! TO.C,D10*
X173300000Y-130900000D03*
X175500000Y-130900000D03*
G04 #@! TD*
G04 #@! TO.C,D11*
X169800000Y-130900000D03*
X167600000Y-130900000D03*
G04 #@! TD*
G04 #@! TO.C,D12*
X162300000Y-130900000D03*
X164500000Y-130900000D03*
G04 #@! TD*
G04 #@! TO.C,D13*
X158400000Y-130900000D03*
X156200000Y-130900000D03*
G04 #@! TD*
G04 #@! TO.C,D14*
X184200000Y-130900000D03*
X186400000Y-130900000D03*
G04 #@! TD*
G04 #@! TO.C,C25*
G36*
G01*
X101190000Y-127700000D02*
X101190000Y-127500000D01*
G75*
G02*
X101290000Y-127400000I100000J0D01*
G01*
X101550000Y-127400000D01*
G75*
G02*
X101650000Y-127500000I0J-100000D01*
G01*
X101650000Y-127700000D01*
G75*
G02*
X101550000Y-127800000I-100000J0D01*
G01*
X101290000Y-127800000D01*
G75*
G02*
X101190000Y-127700000I0J100000D01*
G01*
G37*
G36*
G01*
X100550000Y-127700000D02*
X100550000Y-127500000D01*
G75*
G02*
X100650000Y-127400000I100000J0D01*
G01*
X100910000Y-127400000D01*
G75*
G02*
X101010000Y-127500000I0J-100000D01*
G01*
X101010000Y-127700000D01*
G75*
G02*
X100910000Y-127800000I-100000J0D01*
G01*
X100650000Y-127800000D01*
G75*
G02*
X100550000Y-127700000I0J100000D01*
G01*
G37*
G04 #@! TD*
G04 #@! TO.C,C26*
G36*
G01*
X101750000Y-72200000D02*
X101750000Y-72400000D01*
G75*
G02*
X101650000Y-72500000I-100000J0D01*
G01*
X101390000Y-72500000D01*
G75*
G02*
X101290000Y-72400000I0J100000D01*
G01*
X101290000Y-72200000D01*
G75*
G02*
X101390000Y-72100000I100000J0D01*
G01*
X101650000Y-72100000D01*
G75*
G02*
X101750000Y-72200000I0J-100000D01*
G01*
G37*
G36*
G01*
X101110000Y-72200000D02*
X101110000Y-72400000D01*
G75*
G02*
X101010000Y-72500000I-100000J0D01*
G01*
X100750000Y-72500000D01*
G75*
G02*
X100650000Y-72400000I0J100000D01*
G01*
X100650000Y-72200000D01*
G75*
G02*
X100750000Y-72100000I100000J0D01*
G01*
X101010000Y-72100000D01*
G75*
G02*
X101110000Y-72200000I0J-100000D01*
G01*
G37*
G04 #@! TD*
G04 #@! TO.C,C27*
G36*
G01*
X155000000Y-80510000D02*
X154800000Y-80510000D01*
G75*
G02*
X154700000Y-80410000I0J100000D01*
G01*
X154700000Y-80150000D01*
G75*
G02*
X154800000Y-80050000I100000J0D01*
G01*
X155000000Y-80050000D01*
G75*
G02*
X155100000Y-80150000I0J-100000D01*
G01*
X155100000Y-80410000D01*
G75*
G02*
X155000000Y-80510000I-100000J0D01*
G01*
G37*
G36*
G01*
X155000000Y-81150000D02*
X154800000Y-81150000D01*
G75*
G02*
X154700000Y-81050000I0J100000D01*
G01*
X154700000Y-80790000D01*
G75*
G02*
X154800000Y-80690000I100000J0D01*
G01*
X155000000Y-80690000D01*
G75*
G02*
X155100000Y-80790000I0J-100000D01*
G01*
X155100000Y-81050000D01*
G75*
G02*
X155000000Y-81150000I-100000J0D01*
G01*
G37*
G04 #@! TD*
G04 #@! TO.C,C28*
G36*
G01*
X146200000Y-120650000D02*
X146400000Y-120650000D01*
G75*
G02*
X146500000Y-120750000I0J-100000D01*
G01*
X146500000Y-121010000D01*
G75*
G02*
X146400000Y-121110000I-100000J0D01*
G01*
X146200000Y-121110000D01*
G75*
G02*
X146100000Y-121010000I0J100000D01*
G01*
X146100000Y-120750000D01*
G75*
G02*
X146200000Y-120650000I100000J0D01*
G01*
G37*
G36*
G01*
X146200000Y-121290000D02*
X146400000Y-121290000D01*
G75*
G02*
X146500000Y-121390000I0J-100000D01*
G01*
X146500000Y-121650000D01*
G75*
G02*
X146400000Y-121750000I-100000J0D01*
G01*
X146200000Y-121750000D01*
G75*
G02*
X146100000Y-121650000I0J100000D01*
G01*
X146100000Y-121390000D01*
G75*
G02*
X146200000Y-121290000I100000J0D01*
G01*
G37*
G04 #@! TD*
G04 #@! TO.C,R31*
G36*
G01*
X144550000Y-81800000D02*
X144550000Y-81600000D01*
G75*
G02*
X144650000Y-81500000I100000J0D01*
G01*
X144910000Y-81500000D01*
G75*
G02*
X145010000Y-81600000I0J-100000D01*
G01*
X145010000Y-81800000D01*
G75*
G02*
X144910000Y-81900000I-100000J0D01*
G01*
X144650000Y-81900000D01*
G75*
G02*
X144550000Y-81800000I0J100000D01*
G01*
G37*
G36*
G01*
X145190000Y-81800000D02*
X145190000Y-81600000D01*
G75*
G02*
X145290000Y-81500000I100000J0D01*
G01*
X145550000Y-81500000D01*
G75*
G02*
X145650000Y-81600000I0J-100000D01*
G01*
X145650000Y-81800000D01*
G75*
G02*
X145550000Y-81900000I-100000J0D01*
G01*
X145290000Y-81900000D01*
G75*
G02*
X145190000Y-81800000I0J100000D01*
G01*
G37*
G04 #@! TD*
G04 #@! TO.C,R32*
G36*
G01*
X156410000Y-120000000D02*
X156410000Y-120200000D01*
G75*
G02*
X156310000Y-120300000I-100000J0D01*
G01*
X156050000Y-120300000D01*
G75*
G02*
X155950000Y-120200000I0J100000D01*
G01*
X155950000Y-120000000D01*
G75*
G02*
X156050000Y-119900000I100000J0D01*
G01*
X156310000Y-119900000D01*
G75*
G02*
X156410000Y-120000000I0J-100000D01*
G01*
G37*
G36*
G01*
X157050000Y-120000000D02*
X157050000Y-120200000D01*
G75*
G02*
X156950000Y-120300000I-100000J0D01*
G01*
X156690000Y-120300000D01*
G75*
G02*
X156590000Y-120200000I0J100000D01*
G01*
X156590000Y-120000000D01*
G75*
G02*
X156690000Y-119900000I100000J0D01*
G01*
X156950000Y-119900000D01*
G75*
G02*
X157050000Y-120000000I0J-100000D01*
G01*
G37*
G04 #@! TD*
M02*
