G04 #@! TF.GenerationSoftware,KiCad,Pcbnew,(5.1.10)-1*
G04 #@! TF.CreationDate,2021-08-13T13:47:00+01:00*
G04 #@! TF.ProjectId,DataAqBoardV1.1,44617461-4171-4426-9f61-726456312e31,rev?*
G04 #@! TF.SameCoordinates,Original*
G04 #@! TF.FileFunction,Legend,Top*
G04 #@! TF.FilePolarity,Positive*
%FSLAX46Y46*%
G04 Gerber Fmt 4.6, Leading zero omitted, Abs format (unit mm)*
G04 Created by KiCad (PCBNEW (5.1.10)-1) date 2021-08-13 13:47:00*
%MOMM*%
%LPD*%
G01*
G04 APERTURE LIST*
%ADD10C,0.100000*%
%ADD11C,0.250000*%
%ADD12C,0.500000*%
G04 APERTURE END LIST*
D10*
G04 #@! TO.C,IC1*
X167625000Y-78740000D02*
X167775000Y-78740000D01*
X167775000Y-78740000D02*
X167775000Y-81660000D01*
X167775000Y-81660000D02*
X167625000Y-81660000D01*
X167625000Y-81660000D02*
X167625000Y-78740000D01*
X166025000Y-78665000D02*
X167275000Y-78665000D01*
G04 #@! TO.C,IC2*
X98650000Y-123300000D02*
X98650000Y-120100000D01*
X98650000Y-120100000D02*
X103550000Y-120100000D01*
X103550000Y-120100000D02*
X103550000Y-123300000D01*
X103550000Y-123300000D02*
X98650000Y-123300000D01*
X98520000Y-125175000D02*
X98520000Y-123650000D01*
G04 #@! TO.C,IC3*
X103780000Y-74525000D02*
X103780000Y-76050000D01*
X98750000Y-76400000D02*
X103650000Y-76400000D01*
X98750000Y-79600000D02*
X98750000Y-76400000D01*
X103650000Y-79600000D02*
X98750000Y-79600000D01*
X103650000Y-76400000D02*
X103650000Y-79600000D01*
G04 #@! TO.C,IC4*
X146625000Y-76550000D02*
X148100000Y-76550000D01*
X148450000Y-84600000D02*
X148450000Y-76800000D01*
X152150000Y-84600000D02*
X148450000Y-84600000D01*
X152150000Y-76800000D02*
X152150000Y-84600000D01*
X148450000Y-76800000D02*
X152150000Y-76800000D01*
G04 #@! TO.C,IC5*
X152550000Y-125000000D02*
X148850000Y-125000000D01*
X148850000Y-125000000D02*
X148850000Y-117200000D01*
X148850000Y-117200000D02*
X152550000Y-117200000D01*
X152550000Y-117200000D02*
X152550000Y-125000000D01*
X154375000Y-125250000D02*
X152900000Y-125250000D01*
G04 #@! TO.C,J1*
X92750000Y-149950000D02*
X92750000Y-129450000D01*
X109350000Y-149950000D02*
X92750000Y-149950000D01*
X109350000Y-129450000D02*
X109350000Y-149950000D01*
X92750000Y-129450000D02*
X109350000Y-129450000D01*
G04 #@! TO.C,J2*
X109350000Y-70550000D02*
X92750000Y-70550000D01*
X92750000Y-70550000D02*
X92750000Y-50050000D01*
X92750000Y-50050000D02*
X109350000Y-50050000D01*
X109350000Y-50050000D02*
X109350000Y-70550000D01*
G04 #@! TO.C,J3*
X186080000Y-66300000D02*
X154880000Y-66300000D01*
X154880000Y-66300000D02*
X154880000Y-50060000D01*
X154880000Y-50060000D02*
X186080000Y-50060000D01*
X186080000Y-50060000D02*
X186080000Y-66300000D01*
X165100000Y-66800000D02*
X165100000Y-66800000D01*
X164900000Y-66800000D02*
X164900000Y-66800000D01*
X164900000Y-66800000D02*
G75*
G02*
X165100000Y-66800000I100000J0D01*
G01*
X165100000Y-66800000D02*
G75*
G02*
X164900000Y-66800000I-100000J0D01*
G01*
G04 #@! TO.C,J4*
X124900000Y-66800000D02*
X124900000Y-66800000D01*
X125100000Y-66800000D02*
X125100000Y-66800000D01*
X146080000Y-50060000D02*
X146080000Y-66300000D01*
X114880000Y-50060000D02*
X146080000Y-50060000D01*
X114880000Y-66300000D02*
X114880000Y-50060000D01*
X146080000Y-66300000D02*
X114880000Y-66300000D01*
X125100000Y-66800000D02*
G75*
G02*
X124900000Y-66800000I-100000J0D01*
G01*
X124900000Y-66800000D02*
G75*
G02*
X125100000Y-66800000I100000J0D01*
G01*
G04 #@! TO.C,J5*
X114920000Y-133700000D02*
X146120000Y-133700000D01*
X146120000Y-133700000D02*
X146120000Y-149940000D01*
X146120000Y-149940000D02*
X114920000Y-149940000D01*
X114920000Y-149940000D02*
X114920000Y-133700000D01*
X135900000Y-133200000D02*
X135900000Y-133200000D01*
X136100000Y-133200000D02*
X136100000Y-133200000D01*
X136100000Y-133200000D02*
G75*
G02*
X135900000Y-133200000I-100000J0D01*
G01*
X135900000Y-133200000D02*
G75*
G02*
X136100000Y-133200000I100000J0D01*
G01*
G04 #@! TO.C,J6*
X176100000Y-133200000D02*
X176100000Y-133200000D01*
X175900000Y-133200000D02*
X175900000Y-133200000D01*
X154920000Y-149940000D02*
X154920000Y-133700000D01*
X186120000Y-149940000D02*
X154920000Y-149940000D01*
X186120000Y-133700000D02*
X186120000Y-149940000D01*
X154920000Y-133700000D02*
X186120000Y-133700000D01*
X175900000Y-133200000D02*
G75*
G02*
X176100000Y-133200000I100000J0D01*
G01*
X176100000Y-133200000D02*
G75*
G02*
X175900000Y-133200000I-100000J0D01*
G01*
G04 #@! TO.C,U1*
X197415000Y-90211000D02*
G75*
G03*
X197415000Y-90211000I-254000J0D01*
G01*
X194069820Y-95494200D02*
X201423120Y-95494200D01*
X194069820Y-104493420D02*
X194069820Y-95494200D01*
X201423120Y-104493420D02*
X194069820Y-104493420D01*
X201423120Y-95499280D02*
X201423120Y-104493420D01*
X199327620Y-91100000D02*
X179000000Y-91100000D01*
X199998180Y-91770560D02*
X199327620Y-91100000D01*
X199998180Y-108897780D02*
X199998180Y-91770560D01*
X179000000Y-108897780D02*
X199998180Y-108897780D01*
X179000000Y-91100000D02*
X179000000Y-108897780D01*
X197415000Y-103419000D02*
X200082000Y-103419000D01*
X200082000Y-103419000D02*
X200082000Y-105197000D01*
X197415000Y-105197000D02*
X200082000Y-105197000D01*
X197415000Y-103419000D02*
X197415000Y-105197000D01*
X193348460Y-103419000D02*
X196018000Y-103419000D01*
X196018000Y-103419000D02*
X196018000Y-105197000D01*
X193348460Y-105197000D02*
X196018000Y-105197000D01*
X193348460Y-103419000D02*
X193348460Y-105197000D01*
X193348460Y-94783000D02*
X196018000Y-94783000D01*
X196018000Y-94783000D02*
X196018000Y-96561000D01*
X193348460Y-96561000D02*
X196018000Y-96561000D01*
X193348460Y-94783000D02*
X193348460Y-96561000D01*
X197415000Y-94783000D02*
X200082000Y-94783000D01*
X200082000Y-94783000D02*
X200082000Y-96561000D01*
X197415000Y-96561000D02*
X200082000Y-96561000D01*
X197415000Y-94783000D02*
X197415000Y-96561000D01*
X179635000Y-97450000D02*
X182175000Y-97450000D01*
X182175000Y-97450000D02*
X182175000Y-103165000D01*
X179635000Y-103165000D02*
X182175000Y-103165000D01*
X179635000Y-97450000D02*
X179635000Y-103165000D01*
X196780000Y-97450000D02*
X199320000Y-97450000D01*
X199320000Y-97450000D02*
X199320000Y-102530000D01*
X196780000Y-102530000D02*
X199320000Y-102530000D01*
X196780000Y-97450000D02*
X196780000Y-102530000D01*
G04 #@! TO.C,IC6*
X133375000Y-122935000D02*
X132125000Y-122935000D01*
X131775000Y-119940000D02*
X131775000Y-122860000D01*
X131625000Y-119940000D02*
X131775000Y-119940000D01*
X131625000Y-122860000D02*
X131625000Y-119940000D01*
X131775000Y-122860000D02*
X131625000Y-122860000D01*
G04 #@! TO.C,D1*
X169050000Y-68175000D02*
X167350000Y-68175000D01*
X169925000Y-69425000D02*
X167350000Y-69425000D01*
G04 #@! TO.C,D2*
X123625000Y-69325000D02*
X121050000Y-69325000D01*
X122750000Y-68075000D02*
X121050000Y-68075000D01*
G04 #@! TO.C,D3*
X127950000Y-68275000D02*
X126250000Y-68275000D01*
X128825000Y-69525000D02*
X126250000Y-69525000D01*
G04 #@! TO.C,D4*
X134825000Y-69425000D02*
X132250000Y-69425000D01*
X133950000Y-68175000D02*
X132250000Y-68175000D01*
G04 #@! TO.C,D5*
X139750000Y-68175000D02*
X138050000Y-68175000D01*
X140625000Y-69425000D02*
X138050000Y-69425000D01*
G04 #@! TO.C,D6*
X146525000Y-69425000D02*
X143950000Y-69425000D01*
X145650000Y-68175000D02*
X143950000Y-68175000D01*
G04 #@! TO.C,D7*
X117550000Y-68175000D02*
X115850000Y-68175000D01*
X118425000Y-69425000D02*
X115850000Y-69425000D01*
G04 #@! TO.C,D8*
X131775000Y-129775000D02*
X134350000Y-129775000D01*
X132650000Y-131025000D02*
X134350000Y-131025000D01*
G04 #@! TO.C,D9*
X178850000Y-131525000D02*
X180550000Y-131525000D01*
X177975000Y-130275000D02*
X180550000Y-130275000D01*
G04 #@! TO.C,D10*
X172675000Y-130275000D02*
X175250000Y-130275000D01*
X173550000Y-131525000D02*
X175250000Y-131525000D01*
G04 #@! TO.C,D11*
X167850000Y-131525000D02*
X169550000Y-131525000D01*
X166975000Y-130275000D02*
X169550000Y-130275000D01*
G04 #@! TO.C,D12*
X161675000Y-130275000D02*
X164250000Y-130275000D01*
X162550000Y-131525000D02*
X164250000Y-131525000D01*
G04 #@! TO.C,D13*
X156450000Y-131525000D02*
X158150000Y-131525000D01*
X155575000Y-130275000D02*
X158150000Y-130275000D01*
G04 #@! TO.C,D14*
X183575000Y-130275000D02*
X186150000Y-130275000D01*
X184450000Y-131525000D02*
X186150000Y-131525000D01*
G04 #@! TO.C,*
G04 #@! TO.C,C1*
X166016666Y-77578571D02*
X165992857Y-77602380D01*
X165921428Y-77626190D01*
X165873809Y-77626190D01*
X165802380Y-77602380D01*
X165754761Y-77554761D01*
X165730952Y-77507142D01*
X165707142Y-77411904D01*
X165707142Y-77340476D01*
X165730952Y-77245238D01*
X165754761Y-77197619D01*
X165802380Y-77150000D01*
X165873809Y-77126190D01*
X165921428Y-77126190D01*
X165992857Y-77150000D01*
X166016666Y-77173809D01*
X166492857Y-77626190D02*
X166207142Y-77626190D01*
X166350000Y-77626190D02*
X166350000Y-77126190D01*
X166302380Y-77197619D01*
X166254761Y-77245238D01*
X166207142Y-77269047D01*
G04 #@! TO.C,C2*
X162816666Y-79478571D02*
X162792857Y-79502380D01*
X162721428Y-79526190D01*
X162673809Y-79526190D01*
X162602380Y-79502380D01*
X162554761Y-79454761D01*
X162530952Y-79407142D01*
X162507142Y-79311904D01*
X162507142Y-79240476D01*
X162530952Y-79145238D01*
X162554761Y-79097619D01*
X162602380Y-79050000D01*
X162673809Y-79026190D01*
X162721428Y-79026190D01*
X162792857Y-79050000D01*
X162816666Y-79073809D01*
X163007142Y-79073809D02*
X163030952Y-79050000D01*
X163078571Y-79026190D01*
X163197619Y-79026190D01*
X163245238Y-79050000D01*
X163269047Y-79073809D01*
X163292857Y-79121428D01*
X163292857Y-79169047D01*
X163269047Y-79240476D01*
X162983333Y-79526190D01*
X163292857Y-79526190D01*
G04 #@! TO.C,C3*
X103816666Y-127578571D02*
X103792857Y-127602380D01*
X103721428Y-127626190D01*
X103673809Y-127626190D01*
X103602380Y-127602380D01*
X103554761Y-127554761D01*
X103530952Y-127507142D01*
X103507142Y-127411904D01*
X103507142Y-127340476D01*
X103530952Y-127245238D01*
X103554761Y-127197619D01*
X103602380Y-127150000D01*
X103673809Y-127126190D01*
X103721428Y-127126190D01*
X103792857Y-127150000D01*
X103816666Y-127173809D01*
X103983333Y-127126190D02*
X104292857Y-127126190D01*
X104126190Y-127316666D01*
X104197619Y-127316666D01*
X104245238Y-127340476D01*
X104269047Y-127364285D01*
X104292857Y-127411904D01*
X104292857Y-127530952D01*
X104269047Y-127578571D01*
X104245238Y-127602380D01*
X104197619Y-127626190D01*
X104054761Y-127626190D01*
X104007142Y-127602380D01*
X103983333Y-127578571D01*
G04 #@! TO.C,C4*
X98366666Y-72778571D02*
X98342857Y-72802380D01*
X98271428Y-72826190D01*
X98223809Y-72826190D01*
X98152380Y-72802380D01*
X98104761Y-72754761D01*
X98080952Y-72707142D01*
X98057142Y-72611904D01*
X98057142Y-72540476D01*
X98080952Y-72445238D01*
X98104761Y-72397619D01*
X98152380Y-72350000D01*
X98223809Y-72326190D01*
X98271428Y-72326190D01*
X98342857Y-72350000D01*
X98366666Y-72373809D01*
X98795238Y-72492857D02*
X98795238Y-72826190D01*
X98676190Y-72302380D02*
X98557142Y-72659523D01*
X98866666Y-72659523D01*
G04 #@! TO.C,C5*
X159416666Y-82578571D02*
X159392857Y-82602380D01*
X159321428Y-82626190D01*
X159273809Y-82626190D01*
X159202380Y-82602380D01*
X159154761Y-82554761D01*
X159130952Y-82507142D01*
X159107142Y-82411904D01*
X159107142Y-82340476D01*
X159130952Y-82245238D01*
X159154761Y-82197619D01*
X159202380Y-82150000D01*
X159273809Y-82126190D01*
X159321428Y-82126190D01*
X159392857Y-82150000D01*
X159416666Y-82173809D01*
X159869047Y-82126190D02*
X159630952Y-82126190D01*
X159607142Y-82364285D01*
X159630952Y-82340476D01*
X159678571Y-82316666D01*
X159797619Y-82316666D01*
X159845238Y-82340476D01*
X159869047Y-82364285D01*
X159892857Y-82411904D01*
X159892857Y-82530952D01*
X159869047Y-82578571D01*
X159845238Y-82602380D01*
X159797619Y-82626190D01*
X159678571Y-82626190D01*
X159630952Y-82602380D01*
X159607142Y-82578571D01*
G04 #@! TO.C,C6*
X157716666Y-81078571D02*
X157692857Y-81102380D01*
X157621428Y-81126190D01*
X157573809Y-81126190D01*
X157502380Y-81102380D01*
X157454761Y-81054761D01*
X157430952Y-81007142D01*
X157407142Y-80911904D01*
X157407142Y-80840476D01*
X157430952Y-80745238D01*
X157454761Y-80697619D01*
X157502380Y-80650000D01*
X157573809Y-80626190D01*
X157621428Y-80626190D01*
X157692857Y-80650000D01*
X157716666Y-80673809D01*
X158145238Y-80626190D02*
X158050000Y-80626190D01*
X158002380Y-80650000D01*
X157978571Y-80673809D01*
X157930952Y-80745238D01*
X157907142Y-80840476D01*
X157907142Y-81030952D01*
X157930952Y-81078571D01*
X157954761Y-81102380D01*
X158002380Y-81126190D01*
X158097619Y-81126190D01*
X158145238Y-81102380D01*
X158169047Y-81078571D01*
X158192857Y-81030952D01*
X158192857Y-80911904D01*
X158169047Y-80864285D01*
X158145238Y-80840476D01*
X158097619Y-80816666D01*
X158002380Y-80816666D01*
X157954761Y-80840476D01*
X157930952Y-80864285D01*
X157907142Y-80911904D01*
G04 #@! TO.C,C7*
X162816666Y-72678571D02*
X162792857Y-72702380D01*
X162721428Y-72726190D01*
X162673809Y-72726190D01*
X162602380Y-72702380D01*
X162554761Y-72654761D01*
X162530952Y-72607142D01*
X162507142Y-72511904D01*
X162507142Y-72440476D01*
X162530952Y-72345238D01*
X162554761Y-72297619D01*
X162602380Y-72250000D01*
X162673809Y-72226190D01*
X162721428Y-72226190D01*
X162792857Y-72250000D01*
X162816666Y-72273809D01*
X162983333Y-72226190D02*
X163316666Y-72226190D01*
X163102380Y-72726190D01*
G04 #@! TO.C,C8*
X117216666Y-72578571D02*
X117192857Y-72602380D01*
X117121428Y-72626190D01*
X117073809Y-72626190D01*
X117002380Y-72602380D01*
X116954761Y-72554761D01*
X116930952Y-72507142D01*
X116907142Y-72411904D01*
X116907142Y-72340476D01*
X116930952Y-72245238D01*
X116954761Y-72197619D01*
X117002380Y-72150000D01*
X117073809Y-72126190D01*
X117121428Y-72126190D01*
X117192857Y-72150000D01*
X117216666Y-72173809D01*
X117502380Y-72340476D02*
X117454761Y-72316666D01*
X117430952Y-72292857D01*
X117407142Y-72245238D01*
X117407142Y-72221428D01*
X117430952Y-72173809D01*
X117454761Y-72150000D01*
X117502380Y-72126190D01*
X117597619Y-72126190D01*
X117645238Y-72150000D01*
X117669047Y-72173809D01*
X117692857Y-72221428D01*
X117692857Y-72245238D01*
X117669047Y-72292857D01*
X117645238Y-72316666D01*
X117597619Y-72340476D01*
X117502380Y-72340476D01*
X117454761Y-72364285D01*
X117430952Y-72388095D01*
X117407142Y-72435714D01*
X117407142Y-72530952D01*
X117430952Y-72578571D01*
X117454761Y-72602380D01*
X117502380Y-72626190D01*
X117597619Y-72626190D01*
X117645238Y-72602380D01*
X117669047Y-72578571D01*
X117692857Y-72530952D01*
X117692857Y-72435714D01*
X117669047Y-72388095D01*
X117645238Y-72364285D01*
X117597619Y-72340476D01*
G04 #@! TO.C,C9*
X122316666Y-72678571D02*
X122292857Y-72702380D01*
X122221428Y-72726190D01*
X122173809Y-72726190D01*
X122102380Y-72702380D01*
X122054761Y-72654761D01*
X122030952Y-72607142D01*
X122007142Y-72511904D01*
X122007142Y-72440476D01*
X122030952Y-72345238D01*
X122054761Y-72297619D01*
X122102380Y-72250000D01*
X122173809Y-72226190D01*
X122221428Y-72226190D01*
X122292857Y-72250000D01*
X122316666Y-72273809D01*
X122554761Y-72726190D02*
X122650000Y-72726190D01*
X122697619Y-72702380D01*
X122721428Y-72678571D01*
X122769047Y-72607142D01*
X122792857Y-72511904D01*
X122792857Y-72321428D01*
X122769047Y-72273809D01*
X122745238Y-72250000D01*
X122697619Y-72226190D01*
X122602380Y-72226190D01*
X122554761Y-72250000D01*
X122530952Y-72273809D01*
X122507142Y-72321428D01*
X122507142Y-72440476D01*
X122530952Y-72488095D01*
X122554761Y-72511904D01*
X122602380Y-72535714D01*
X122697619Y-72535714D01*
X122745238Y-72511904D01*
X122769047Y-72488095D01*
X122792857Y-72440476D01*
G04 #@! TO.C,C10*
X127678571Y-72778571D02*
X127654761Y-72802380D01*
X127583333Y-72826190D01*
X127535714Y-72826190D01*
X127464285Y-72802380D01*
X127416666Y-72754761D01*
X127392857Y-72707142D01*
X127369047Y-72611904D01*
X127369047Y-72540476D01*
X127392857Y-72445238D01*
X127416666Y-72397619D01*
X127464285Y-72350000D01*
X127535714Y-72326190D01*
X127583333Y-72326190D01*
X127654761Y-72350000D01*
X127678571Y-72373809D01*
X128154761Y-72826190D02*
X127869047Y-72826190D01*
X128011904Y-72826190D02*
X128011904Y-72326190D01*
X127964285Y-72397619D01*
X127916666Y-72445238D01*
X127869047Y-72469047D01*
X128464285Y-72326190D02*
X128511904Y-72326190D01*
X128559523Y-72350000D01*
X128583333Y-72373809D01*
X128607142Y-72421428D01*
X128630952Y-72516666D01*
X128630952Y-72635714D01*
X128607142Y-72730952D01*
X128583333Y-72778571D01*
X128559523Y-72802380D01*
X128511904Y-72826190D01*
X128464285Y-72826190D01*
X128416666Y-72802380D01*
X128392857Y-72778571D01*
X128369047Y-72730952D01*
X128345238Y-72635714D01*
X128345238Y-72516666D01*
X128369047Y-72421428D01*
X128392857Y-72373809D01*
X128416666Y-72350000D01*
X128464285Y-72326190D01*
G04 #@! TO.C,C11*
X133378571Y-72678571D02*
X133354761Y-72702380D01*
X133283333Y-72726190D01*
X133235714Y-72726190D01*
X133164285Y-72702380D01*
X133116666Y-72654761D01*
X133092857Y-72607142D01*
X133069047Y-72511904D01*
X133069047Y-72440476D01*
X133092857Y-72345238D01*
X133116666Y-72297619D01*
X133164285Y-72250000D01*
X133235714Y-72226190D01*
X133283333Y-72226190D01*
X133354761Y-72250000D01*
X133378571Y-72273809D01*
X133854761Y-72726190D02*
X133569047Y-72726190D01*
X133711904Y-72726190D02*
X133711904Y-72226190D01*
X133664285Y-72297619D01*
X133616666Y-72345238D01*
X133569047Y-72369047D01*
X134330952Y-72726190D02*
X134045238Y-72726190D01*
X134188095Y-72726190D02*
X134188095Y-72226190D01*
X134140476Y-72297619D01*
X134092857Y-72345238D01*
X134045238Y-72369047D01*
G04 #@! TO.C,C12*
X139478571Y-72678571D02*
X139454761Y-72702380D01*
X139383333Y-72726190D01*
X139335714Y-72726190D01*
X139264285Y-72702380D01*
X139216666Y-72654761D01*
X139192857Y-72607142D01*
X139169047Y-72511904D01*
X139169047Y-72440476D01*
X139192857Y-72345238D01*
X139216666Y-72297619D01*
X139264285Y-72250000D01*
X139335714Y-72226190D01*
X139383333Y-72226190D01*
X139454761Y-72250000D01*
X139478571Y-72273809D01*
X139954761Y-72726190D02*
X139669047Y-72726190D01*
X139811904Y-72726190D02*
X139811904Y-72226190D01*
X139764285Y-72297619D01*
X139716666Y-72345238D01*
X139669047Y-72369047D01*
X140145238Y-72273809D02*
X140169047Y-72250000D01*
X140216666Y-72226190D01*
X140335714Y-72226190D01*
X140383333Y-72250000D01*
X140407142Y-72273809D01*
X140430952Y-72321428D01*
X140430952Y-72369047D01*
X140407142Y-72440476D01*
X140121428Y-72726190D01*
X140430952Y-72726190D01*
G04 #@! TO.C,C13*
X111078571Y-72378571D02*
X111054761Y-72402380D01*
X110983333Y-72426190D01*
X110935714Y-72426190D01*
X110864285Y-72402380D01*
X110816666Y-72354761D01*
X110792857Y-72307142D01*
X110769047Y-72211904D01*
X110769047Y-72140476D01*
X110792857Y-72045238D01*
X110816666Y-71997619D01*
X110864285Y-71950000D01*
X110935714Y-71926190D01*
X110983333Y-71926190D01*
X111054761Y-71950000D01*
X111078571Y-71973809D01*
X111554761Y-72426190D02*
X111269047Y-72426190D01*
X111411904Y-72426190D02*
X111411904Y-71926190D01*
X111364285Y-71997619D01*
X111316666Y-72045238D01*
X111269047Y-72069047D01*
X111721428Y-71926190D02*
X112030952Y-71926190D01*
X111864285Y-72116666D01*
X111935714Y-72116666D01*
X111983333Y-72140476D01*
X112007142Y-72164285D01*
X112030952Y-72211904D01*
X112030952Y-72330952D01*
X112007142Y-72378571D01*
X111983333Y-72402380D01*
X111935714Y-72426190D01*
X111792857Y-72426190D01*
X111745238Y-72402380D01*
X111721428Y-72378571D01*
G04 #@! TO.C,C14*
X142178571Y-118878571D02*
X142154761Y-118902380D01*
X142083333Y-118926190D01*
X142035714Y-118926190D01*
X141964285Y-118902380D01*
X141916666Y-118854761D01*
X141892857Y-118807142D01*
X141869047Y-118711904D01*
X141869047Y-118640476D01*
X141892857Y-118545238D01*
X141916666Y-118497619D01*
X141964285Y-118450000D01*
X142035714Y-118426190D01*
X142083333Y-118426190D01*
X142154761Y-118450000D01*
X142178571Y-118473809D01*
X142654761Y-118926190D02*
X142369047Y-118926190D01*
X142511904Y-118926190D02*
X142511904Y-118426190D01*
X142464285Y-118497619D01*
X142416666Y-118545238D01*
X142369047Y-118569047D01*
X143083333Y-118592857D02*
X143083333Y-118926190D01*
X142964285Y-118402380D02*
X142845238Y-118759523D01*
X143154761Y-118759523D01*
G04 #@! TO.C,C15*
X142678571Y-121778571D02*
X142654761Y-121802380D01*
X142583333Y-121826190D01*
X142535714Y-121826190D01*
X142464285Y-121802380D01*
X142416666Y-121754761D01*
X142392857Y-121707142D01*
X142369047Y-121611904D01*
X142369047Y-121540476D01*
X142392857Y-121445238D01*
X142416666Y-121397619D01*
X142464285Y-121350000D01*
X142535714Y-121326190D01*
X142583333Y-121326190D01*
X142654761Y-121350000D01*
X142678571Y-121373809D01*
X143154761Y-121826190D02*
X142869047Y-121826190D01*
X143011904Y-121826190D02*
X143011904Y-121326190D01*
X142964285Y-121397619D01*
X142916666Y-121445238D01*
X142869047Y-121469047D01*
X143607142Y-121326190D02*
X143369047Y-121326190D01*
X143345238Y-121564285D01*
X143369047Y-121540476D01*
X143416666Y-121516666D01*
X143535714Y-121516666D01*
X143583333Y-121540476D01*
X143607142Y-121564285D01*
X143630952Y-121611904D01*
X143630952Y-121730952D01*
X143607142Y-121778571D01*
X143583333Y-121802380D01*
X143535714Y-121826190D01*
X143416666Y-121826190D01*
X143369047Y-121802380D01*
X143345238Y-121778571D01*
G04 #@! TO.C,C16*
X140678571Y-127278571D02*
X140654761Y-127302380D01*
X140583333Y-127326190D01*
X140535714Y-127326190D01*
X140464285Y-127302380D01*
X140416666Y-127254761D01*
X140392857Y-127207142D01*
X140369047Y-127111904D01*
X140369047Y-127040476D01*
X140392857Y-126945238D01*
X140416666Y-126897619D01*
X140464285Y-126850000D01*
X140535714Y-126826190D01*
X140583333Y-126826190D01*
X140654761Y-126850000D01*
X140678571Y-126873809D01*
X141154761Y-127326190D02*
X140869047Y-127326190D01*
X141011904Y-127326190D02*
X141011904Y-126826190D01*
X140964285Y-126897619D01*
X140916666Y-126945238D01*
X140869047Y-126969047D01*
X141583333Y-126826190D02*
X141488095Y-126826190D01*
X141440476Y-126850000D01*
X141416666Y-126873809D01*
X141369047Y-126945238D01*
X141345238Y-127040476D01*
X141345238Y-127230952D01*
X141369047Y-127278571D01*
X141392857Y-127302380D01*
X141440476Y-127326190D01*
X141535714Y-127326190D01*
X141583333Y-127302380D01*
X141607142Y-127278571D01*
X141630952Y-127230952D01*
X141630952Y-127111904D01*
X141607142Y-127064285D01*
X141583333Y-127040476D01*
X141535714Y-127016666D01*
X141440476Y-127016666D01*
X141392857Y-127040476D01*
X141369047Y-127064285D01*
X141345238Y-127111904D01*
G04 #@! TO.C,C17*
X180678571Y-126478571D02*
X180654761Y-126502380D01*
X180583333Y-126526190D01*
X180535714Y-126526190D01*
X180464285Y-126502380D01*
X180416666Y-126454761D01*
X180392857Y-126407142D01*
X180369047Y-126311904D01*
X180369047Y-126240476D01*
X180392857Y-126145238D01*
X180416666Y-126097619D01*
X180464285Y-126050000D01*
X180535714Y-126026190D01*
X180583333Y-126026190D01*
X180654761Y-126050000D01*
X180678571Y-126073809D01*
X181154761Y-126526190D02*
X180869047Y-126526190D01*
X181011904Y-126526190D02*
X181011904Y-126026190D01*
X180964285Y-126097619D01*
X180916666Y-126145238D01*
X180869047Y-126169047D01*
X181321428Y-126026190D02*
X181654761Y-126026190D01*
X181440476Y-126526190D01*
G04 #@! TO.C,C18*
X175178571Y-126478571D02*
X175154761Y-126502380D01*
X175083333Y-126526190D01*
X175035714Y-126526190D01*
X174964285Y-126502380D01*
X174916666Y-126454761D01*
X174892857Y-126407142D01*
X174869047Y-126311904D01*
X174869047Y-126240476D01*
X174892857Y-126145238D01*
X174916666Y-126097619D01*
X174964285Y-126050000D01*
X175035714Y-126026190D01*
X175083333Y-126026190D01*
X175154761Y-126050000D01*
X175178571Y-126073809D01*
X175654761Y-126526190D02*
X175369047Y-126526190D01*
X175511904Y-126526190D02*
X175511904Y-126026190D01*
X175464285Y-126097619D01*
X175416666Y-126145238D01*
X175369047Y-126169047D01*
X175940476Y-126240476D02*
X175892857Y-126216666D01*
X175869047Y-126192857D01*
X175845238Y-126145238D01*
X175845238Y-126121428D01*
X175869047Y-126073809D01*
X175892857Y-126050000D01*
X175940476Y-126026190D01*
X176035714Y-126026190D01*
X176083333Y-126050000D01*
X176107142Y-126073809D01*
X176130952Y-126121428D01*
X176130952Y-126145238D01*
X176107142Y-126192857D01*
X176083333Y-126216666D01*
X176035714Y-126240476D01*
X175940476Y-126240476D01*
X175892857Y-126264285D01*
X175869047Y-126288095D01*
X175845238Y-126335714D01*
X175845238Y-126430952D01*
X175869047Y-126478571D01*
X175892857Y-126502380D01*
X175940476Y-126526190D01*
X176035714Y-126526190D01*
X176083333Y-126502380D01*
X176107142Y-126478571D01*
X176130952Y-126430952D01*
X176130952Y-126335714D01*
X176107142Y-126288095D01*
X176083333Y-126264285D01*
X176035714Y-126240476D01*
G04 #@! TO.C,C19*
X169678571Y-126478571D02*
X169654761Y-126502380D01*
X169583333Y-126526190D01*
X169535714Y-126526190D01*
X169464285Y-126502380D01*
X169416666Y-126454761D01*
X169392857Y-126407142D01*
X169369047Y-126311904D01*
X169369047Y-126240476D01*
X169392857Y-126145238D01*
X169416666Y-126097619D01*
X169464285Y-126050000D01*
X169535714Y-126026190D01*
X169583333Y-126026190D01*
X169654761Y-126050000D01*
X169678571Y-126073809D01*
X170154761Y-126526190D02*
X169869047Y-126526190D01*
X170011904Y-126526190D02*
X170011904Y-126026190D01*
X169964285Y-126097619D01*
X169916666Y-126145238D01*
X169869047Y-126169047D01*
X170392857Y-126526190D02*
X170488095Y-126526190D01*
X170535714Y-126502380D01*
X170559523Y-126478571D01*
X170607142Y-126407142D01*
X170630952Y-126311904D01*
X170630952Y-126121428D01*
X170607142Y-126073809D01*
X170583333Y-126050000D01*
X170535714Y-126026190D01*
X170440476Y-126026190D01*
X170392857Y-126050000D01*
X170369047Y-126073809D01*
X170345238Y-126121428D01*
X170345238Y-126240476D01*
X170369047Y-126288095D01*
X170392857Y-126311904D01*
X170440476Y-126335714D01*
X170535714Y-126335714D01*
X170583333Y-126311904D01*
X170607142Y-126288095D01*
X170630952Y-126240476D01*
G04 #@! TO.C,C20*
X164078571Y-126478571D02*
X164054761Y-126502380D01*
X163983333Y-126526190D01*
X163935714Y-126526190D01*
X163864285Y-126502380D01*
X163816666Y-126454761D01*
X163792857Y-126407142D01*
X163769047Y-126311904D01*
X163769047Y-126240476D01*
X163792857Y-126145238D01*
X163816666Y-126097619D01*
X163864285Y-126050000D01*
X163935714Y-126026190D01*
X163983333Y-126026190D01*
X164054761Y-126050000D01*
X164078571Y-126073809D01*
X164269047Y-126073809D02*
X164292857Y-126050000D01*
X164340476Y-126026190D01*
X164459523Y-126026190D01*
X164507142Y-126050000D01*
X164530952Y-126073809D01*
X164554761Y-126121428D01*
X164554761Y-126169047D01*
X164530952Y-126240476D01*
X164245238Y-126526190D01*
X164554761Y-126526190D01*
X164864285Y-126026190D02*
X164911904Y-126026190D01*
X164959523Y-126050000D01*
X164983333Y-126073809D01*
X165007142Y-126121428D01*
X165030952Y-126216666D01*
X165030952Y-126335714D01*
X165007142Y-126430952D01*
X164983333Y-126478571D01*
X164959523Y-126502380D01*
X164911904Y-126526190D01*
X164864285Y-126526190D01*
X164816666Y-126502380D01*
X164792857Y-126478571D01*
X164769047Y-126430952D01*
X164745238Y-126335714D01*
X164745238Y-126216666D01*
X164769047Y-126121428D01*
X164792857Y-126073809D01*
X164816666Y-126050000D01*
X164864285Y-126026190D01*
G04 #@! TO.C,C21*
X157778571Y-126478571D02*
X157754761Y-126502380D01*
X157683333Y-126526190D01*
X157635714Y-126526190D01*
X157564285Y-126502380D01*
X157516666Y-126454761D01*
X157492857Y-126407142D01*
X157469047Y-126311904D01*
X157469047Y-126240476D01*
X157492857Y-126145238D01*
X157516666Y-126097619D01*
X157564285Y-126050000D01*
X157635714Y-126026190D01*
X157683333Y-126026190D01*
X157754761Y-126050000D01*
X157778571Y-126073809D01*
X157969047Y-126073809D02*
X157992857Y-126050000D01*
X158040476Y-126026190D01*
X158159523Y-126026190D01*
X158207142Y-126050000D01*
X158230952Y-126073809D01*
X158254761Y-126121428D01*
X158254761Y-126169047D01*
X158230952Y-126240476D01*
X157945238Y-126526190D01*
X158254761Y-126526190D01*
X158730952Y-126526190D02*
X158445238Y-126526190D01*
X158588095Y-126526190D02*
X158588095Y-126026190D01*
X158540476Y-126097619D01*
X158492857Y-126145238D01*
X158445238Y-126169047D01*
G04 #@! TO.C,C22*
X186678571Y-126378571D02*
X186654761Y-126402380D01*
X186583333Y-126426190D01*
X186535714Y-126426190D01*
X186464285Y-126402380D01*
X186416666Y-126354761D01*
X186392857Y-126307142D01*
X186369047Y-126211904D01*
X186369047Y-126140476D01*
X186392857Y-126045238D01*
X186416666Y-125997619D01*
X186464285Y-125950000D01*
X186535714Y-125926190D01*
X186583333Y-125926190D01*
X186654761Y-125950000D01*
X186678571Y-125973809D01*
X186869047Y-125973809D02*
X186892857Y-125950000D01*
X186940476Y-125926190D01*
X187059523Y-125926190D01*
X187107142Y-125950000D01*
X187130952Y-125973809D01*
X187154761Y-126021428D01*
X187154761Y-126069047D01*
X187130952Y-126140476D01*
X186845238Y-126426190D01*
X187154761Y-126426190D01*
X187345238Y-125973809D02*
X187369047Y-125950000D01*
X187416666Y-125926190D01*
X187535714Y-125926190D01*
X187583333Y-125950000D01*
X187607142Y-125973809D01*
X187630952Y-126021428D01*
X187630952Y-126069047D01*
X187607142Y-126140476D01*
X187321428Y-126426190D01*
X187630952Y-126426190D01*
G04 #@! TO.C,IC1*
X166011904Y-82626190D02*
X166011904Y-82126190D01*
X166535714Y-82578571D02*
X166511904Y-82602380D01*
X166440476Y-82626190D01*
X166392857Y-82626190D01*
X166321428Y-82602380D01*
X166273809Y-82554761D01*
X166250000Y-82507142D01*
X166226190Y-82411904D01*
X166226190Y-82340476D01*
X166250000Y-82245238D01*
X166273809Y-82197619D01*
X166321428Y-82150000D01*
X166392857Y-82126190D01*
X166440476Y-82126190D01*
X166511904Y-82150000D01*
X166535714Y-82173809D01*
X167011904Y-82626190D02*
X166726190Y-82626190D01*
X166869047Y-82626190D02*
X166869047Y-82126190D01*
X166821428Y-82197619D01*
X166773809Y-82245238D01*
X166726190Y-82269047D01*
G04 #@! TO.C,IC2*
D11*
X104223809Y-122252380D02*
X104223809Y-121252380D01*
X105271428Y-122157142D02*
X105223809Y-122204761D01*
X105080952Y-122252380D01*
X104985714Y-122252380D01*
X104842857Y-122204761D01*
X104747619Y-122109523D01*
X104700000Y-122014285D01*
X104652380Y-121823809D01*
X104652380Y-121680952D01*
X104700000Y-121490476D01*
X104747619Y-121395238D01*
X104842857Y-121300000D01*
X104985714Y-121252380D01*
X105080952Y-121252380D01*
X105223809Y-121300000D01*
X105271428Y-121347619D01*
X105652380Y-121347619D02*
X105700000Y-121300000D01*
X105795238Y-121252380D01*
X106033333Y-121252380D01*
X106128571Y-121300000D01*
X106176190Y-121347619D01*
X106223809Y-121442857D01*
X106223809Y-121538095D01*
X106176190Y-121680952D01*
X105604761Y-122252380D01*
X106223809Y-122252380D01*
G04 #@! TO.C,IC3*
X104423809Y-78552380D02*
X104423809Y-77552380D01*
X105471428Y-78457142D02*
X105423809Y-78504761D01*
X105280952Y-78552380D01*
X105185714Y-78552380D01*
X105042857Y-78504761D01*
X104947619Y-78409523D01*
X104900000Y-78314285D01*
X104852380Y-78123809D01*
X104852380Y-77980952D01*
X104900000Y-77790476D01*
X104947619Y-77695238D01*
X105042857Y-77600000D01*
X105185714Y-77552380D01*
X105280952Y-77552380D01*
X105423809Y-77600000D01*
X105471428Y-77647619D01*
X105804761Y-77552380D02*
X106423809Y-77552380D01*
X106090476Y-77933333D01*
X106233333Y-77933333D01*
X106328571Y-77980952D01*
X106376190Y-78028571D01*
X106423809Y-78123809D01*
X106423809Y-78361904D01*
X106376190Y-78457142D01*
X106328571Y-78504761D01*
X106233333Y-78552380D01*
X105947619Y-78552380D01*
X105852380Y-78504761D01*
X105804761Y-78457142D01*
G04 #@! TO.C,IC4*
X146623809Y-76252380D02*
X146623809Y-75252380D01*
X147671428Y-76157142D02*
X147623809Y-76204761D01*
X147480952Y-76252380D01*
X147385714Y-76252380D01*
X147242857Y-76204761D01*
X147147619Y-76109523D01*
X147100000Y-76014285D01*
X147052380Y-75823809D01*
X147052380Y-75680952D01*
X147100000Y-75490476D01*
X147147619Y-75395238D01*
X147242857Y-75300000D01*
X147385714Y-75252380D01*
X147480952Y-75252380D01*
X147623809Y-75300000D01*
X147671428Y-75347619D01*
X148528571Y-75585714D02*
X148528571Y-76252380D01*
X148290476Y-75204761D02*
X148052380Y-75919047D01*
X148671428Y-75919047D01*
G04 #@! TO.C,IC5*
X146923809Y-126752380D02*
X146923809Y-125752380D01*
X147971428Y-126657142D02*
X147923809Y-126704761D01*
X147780952Y-126752380D01*
X147685714Y-126752380D01*
X147542857Y-126704761D01*
X147447619Y-126609523D01*
X147400000Y-126514285D01*
X147352380Y-126323809D01*
X147352380Y-126180952D01*
X147400000Y-125990476D01*
X147447619Y-125895238D01*
X147542857Y-125800000D01*
X147685714Y-125752380D01*
X147780952Y-125752380D01*
X147923809Y-125800000D01*
X147971428Y-125847619D01*
X148876190Y-125752380D02*
X148400000Y-125752380D01*
X148352380Y-126228571D01*
X148400000Y-126180952D01*
X148495238Y-126133333D01*
X148733333Y-126133333D01*
X148828571Y-126180952D01*
X148876190Y-126228571D01*
X148923809Y-126323809D01*
X148923809Y-126561904D01*
X148876190Y-126657142D01*
X148828571Y-126704761D01*
X148733333Y-126752380D01*
X148495238Y-126752380D01*
X148400000Y-126704761D01*
X148352380Y-126657142D01*
G04 #@! TO.C,J1*
D12*
X89033333Y-128804761D02*
X89033333Y-130233333D01*
X88938095Y-130519047D01*
X88747619Y-130709523D01*
X88461904Y-130804761D01*
X88271428Y-130804761D01*
X91033333Y-130804761D02*
X89890476Y-130804761D01*
X90461904Y-130804761D02*
X90461904Y-128804761D01*
X90271428Y-129090476D01*
X90080952Y-129280952D01*
X89890476Y-129376190D01*
G04 #@! TO.C,J2*
X89033333Y-69304761D02*
X89033333Y-70733333D01*
X88938095Y-71019047D01*
X88747619Y-71209523D01*
X88461904Y-71304761D01*
X88271428Y-71304761D01*
X89890476Y-69495238D02*
X89985714Y-69400000D01*
X90176190Y-69304761D01*
X90652380Y-69304761D01*
X90842857Y-69400000D01*
X90938095Y-69495238D01*
X91033333Y-69685714D01*
X91033333Y-69876190D01*
X90938095Y-70161904D01*
X89795238Y-71304761D01*
X91033333Y-71304761D01*
G04 #@! TO.C,J3*
X188333333Y-64204761D02*
X188333333Y-65633333D01*
X188238095Y-65919047D01*
X188047619Y-66109523D01*
X187761904Y-66204761D01*
X187571428Y-66204761D01*
X189095238Y-64204761D02*
X190333333Y-64204761D01*
X189666666Y-64966666D01*
X189952380Y-64966666D01*
X190142857Y-65061904D01*
X190238095Y-65157142D01*
X190333333Y-65347619D01*
X190333333Y-65823809D01*
X190238095Y-66014285D01*
X190142857Y-66109523D01*
X189952380Y-66204761D01*
X189380952Y-66204761D01*
X189190476Y-66109523D01*
X189095238Y-66014285D01*
G04 #@! TO.C,J4*
X148533333Y-63904761D02*
X148533333Y-65333333D01*
X148438095Y-65619047D01*
X148247619Y-65809523D01*
X147961904Y-65904761D01*
X147771428Y-65904761D01*
X150342857Y-64571428D02*
X150342857Y-65904761D01*
X149866666Y-63809523D02*
X149390476Y-65238095D01*
X150628571Y-65238095D01*
G04 #@! TO.C,J5*
X148433333Y-133004761D02*
X148433333Y-134433333D01*
X148338095Y-134719047D01*
X148147619Y-134909523D01*
X147861904Y-135004761D01*
X147671428Y-135004761D01*
X150338095Y-133004761D02*
X149385714Y-133004761D01*
X149290476Y-133957142D01*
X149385714Y-133861904D01*
X149576190Y-133766666D01*
X150052380Y-133766666D01*
X150242857Y-133861904D01*
X150338095Y-133957142D01*
X150433333Y-134147619D01*
X150433333Y-134623809D01*
X150338095Y-134814285D01*
X150242857Y-134909523D01*
X150052380Y-135004761D01*
X149576190Y-135004761D01*
X149385714Y-134909523D01*
X149290476Y-134814285D01*
G04 #@! TO.C,J6*
X188433333Y-133004761D02*
X188433333Y-134433333D01*
X188338095Y-134719047D01*
X188147619Y-134909523D01*
X187861904Y-135004761D01*
X187671428Y-135004761D01*
X190242857Y-133004761D02*
X189861904Y-133004761D01*
X189671428Y-133100000D01*
X189576190Y-133195238D01*
X189385714Y-133480952D01*
X189290476Y-133861904D01*
X189290476Y-134623809D01*
X189385714Y-134814285D01*
X189480952Y-134909523D01*
X189671428Y-135004761D01*
X190052380Y-135004761D01*
X190242857Y-134909523D01*
X190338095Y-134814285D01*
X190433333Y-134623809D01*
X190433333Y-134147619D01*
X190338095Y-133957142D01*
X190242857Y-133861904D01*
X190052380Y-133766666D01*
X189671428Y-133766666D01*
X189480952Y-133861904D01*
X189385714Y-133957142D01*
X189290476Y-134147619D01*
G04 #@! TO.C,R1*
D10*
X156516666Y-84326190D02*
X156350000Y-84088095D01*
X156230952Y-84326190D02*
X156230952Y-83826190D01*
X156421428Y-83826190D01*
X156469047Y-83850000D01*
X156492857Y-83873809D01*
X156516666Y-83921428D01*
X156516666Y-83992857D01*
X156492857Y-84040476D01*
X156469047Y-84064285D01*
X156421428Y-84088095D01*
X156230952Y-84088095D01*
X156992857Y-84326190D02*
X156707142Y-84326190D01*
X156850000Y-84326190D02*
X156850000Y-83826190D01*
X156802380Y-83897619D01*
X156754761Y-83945238D01*
X156707142Y-83969047D01*
G04 #@! TO.C,R2*
X164016666Y-72726190D02*
X163850000Y-72488095D01*
X163730952Y-72726190D02*
X163730952Y-72226190D01*
X163921428Y-72226190D01*
X163969047Y-72250000D01*
X163992857Y-72273809D01*
X164016666Y-72321428D01*
X164016666Y-72392857D01*
X163992857Y-72440476D01*
X163969047Y-72464285D01*
X163921428Y-72488095D01*
X163730952Y-72488095D01*
X164207142Y-72273809D02*
X164230952Y-72250000D01*
X164278571Y-72226190D01*
X164397619Y-72226190D01*
X164445238Y-72250000D01*
X164469047Y-72273809D01*
X164492857Y-72321428D01*
X164492857Y-72369047D01*
X164469047Y-72440476D01*
X164183333Y-72726190D01*
X164492857Y-72726190D01*
G04 #@! TO.C,R3*
X165916666Y-71526190D02*
X165750000Y-71288095D01*
X165630952Y-71526190D02*
X165630952Y-71026190D01*
X165821428Y-71026190D01*
X165869047Y-71050000D01*
X165892857Y-71073809D01*
X165916666Y-71121428D01*
X165916666Y-71192857D01*
X165892857Y-71240476D01*
X165869047Y-71264285D01*
X165821428Y-71288095D01*
X165630952Y-71288095D01*
X166083333Y-71026190D02*
X166392857Y-71026190D01*
X166226190Y-71216666D01*
X166297619Y-71216666D01*
X166345238Y-71240476D01*
X166369047Y-71264285D01*
X166392857Y-71311904D01*
X166392857Y-71430952D01*
X166369047Y-71478571D01*
X166345238Y-71502380D01*
X166297619Y-71526190D01*
X166154761Y-71526190D01*
X166107142Y-71502380D01*
X166083333Y-71478571D01*
G04 #@! TO.C,R4*
X120116666Y-71426190D02*
X119950000Y-71188095D01*
X119830952Y-71426190D02*
X119830952Y-70926190D01*
X120021428Y-70926190D01*
X120069047Y-70950000D01*
X120092857Y-70973809D01*
X120116666Y-71021428D01*
X120116666Y-71092857D01*
X120092857Y-71140476D01*
X120069047Y-71164285D01*
X120021428Y-71188095D01*
X119830952Y-71188095D01*
X120545238Y-71092857D02*
X120545238Y-71426190D01*
X120426190Y-70902380D02*
X120307142Y-71259523D01*
X120616666Y-71259523D01*
G04 #@! TO.C,R5*
X118316666Y-72626190D02*
X118150000Y-72388095D01*
X118030952Y-72626190D02*
X118030952Y-72126190D01*
X118221428Y-72126190D01*
X118269047Y-72150000D01*
X118292857Y-72173809D01*
X118316666Y-72221428D01*
X118316666Y-72292857D01*
X118292857Y-72340476D01*
X118269047Y-72364285D01*
X118221428Y-72388095D01*
X118030952Y-72388095D01*
X118769047Y-72126190D02*
X118530952Y-72126190D01*
X118507142Y-72364285D01*
X118530952Y-72340476D01*
X118578571Y-72316666D01*
X118697619Y-72316666D01*
X118745238Y-72340476D01*
X118769047Y-72364285D01*
X118792857Y-72411904D01*
X118792857Y-72530952D01*
X118769047Y-72578571D01*
X118745238Y-72602380D01*
X118697619Y-72626190D01*
X118578571Y-72626190D01*
X118530952Y-72602380D01*
X118507142Y-72578571D01*
G04 #@! TO.C,R6*
X125216666Y-71526190D02*
X125050000Y-71288095D01*
X124930952Y-71526190D02*
X124930952Y-71026190D01*
X125121428Y-71026190D01*
X125169047Y-71050000D01*
X125192857Y-71073809D01*
X125216666Y-71121428D01*
X125216666Y-71192857D01*
X125192857Y-71240476D01*
X125169047Y-71264285D01*
X125121428Y-71288095D01*
X124930952Y-71288095D01*
X125645238Y-71026190D02*
X125550000Y-71026190D01*
X125502380Y-71050000D01*
X125478571Y-71073809D01*
X125430952Y-71145238D01*
X125407142Y-71240476D01*
X125407142Y-71430952D01*
X125430952Y-71478571D01*
X125454761Y-71502380D01*
X125502380Y-71526190D01*
X125597619Y-71526190D01*
X125645238Y-71502380D01*
X125669047Y-71478571D01*
X125692857Y-71430952D01*
X125692857Y-71311904D01*
X125669047Y-71264285D01*
X125645238Y-71240476D01*
X125597619Y-71216666D01*
X125502380Y-71216666D01*
X125454761Y-71240476D01*
X125430952Y-71264285D01*
X125407142Y-71311904D01*
G04 #@! TO.C,R7*
X123416666Y-72726190D02*
X123250000Y-72488095D01*
X123130952Y-72726190D02*
X123130952Y-72226190D01*
X123321428Y-72226190D01*
X123369047Y-72250000D01*
X123392857Y-72273809D01*
X123416666Y-72321428D01*
X123416666Y-72392857D01*
X123392857Y-72440476D01*
X123369047Y-72464285D01*
X123321428Y-72488095D01*
X123130952Y-72488095D01*
X123583333Y-72226190D02*
X123916666Y-72226190D01*
X123702380Y-72726190D01*
G04 #@! TO.C,R8*
X130916666Y-71726190D02*
X130750000Y-71488095D01*
X130630952Y-71726190D02*
X130630952Y-71226190D01*
X130821428Y-71226190D01*
X130869047Y-71250000D01*
X130892857Y-71273809D01*
X130916666Y-71321428D01*
X130916666Y-71392857D01*
X130892857Y-71440476D01*
X130869047Y-71464285D01*
X130821428Y-71488095D01*
X130630952Y-71488095D01*
X131202380Y-71440476D02*
X131154761Y-71416666D01*
X131130952Y-71392857D01*
X131107142Y-71345238D01*
X131107142Y-71321428D01*
X131130952Y-71273809D01*
X131154761Y-71250000D01*
X131202380Y-71226190D01*
X131297619Y-71226190D01*
X131345238Y-71250000D01*
X131369047Y-71273809D01*
X131392857Y-71321428D01*
X131392857Y-71345238D01*
X131369047Y-71392857D01*
X131345238Y-71416666D01*
X131297619Y-71440476D01*
X131202380Y-71440476D01*
X131154761Y-71464285D01*
X131130952Y-71488095D01*
X131107142Y-71535714D01*
X131107142Y-71630952D01*
X131130952Y-71678571D01*
X131154761Y-71702380D01*
X131202380Y-71726190D01*
X131297619Y-71726190D01*
X131345238Y-71702380D01*
X131369047Y-71678571D01*
X131392857Y-71630952D01*
X131392857Y-71535714D01*
X131369047Y-71488095D01*
X131345238Y-71464285D01*
X131297619Y-71440476D01*
G04 #@! TO.C,R9*
X129316666Y-72826190D02*
X129150000Y-72588095D01*
X129030952Y-72826190D02*
X129030952Y-72326190D01*
X129221428Y-72326190D01*
X129269047Y-72350000D01*
X129292857Y-72373809D01*
X129316666Y-72421428D01*
X129316666Y-72492857D01*
X129292857Y-72540476D01*
X129269047Y-72564285D01*
X129221428Y-72588095D01*
X129030952Y-72588095D01*
X129554761Y-72826190D02*
X129650000Y-72826190D01*
X129697619Y-72802380D01*
X129721428Y-72778571D01*
X129769047Y-72707142D01*
X129792857Y-72611904D01*
X129792857Y-72421428D01*
X129769047Y-72373809D01*
X129745238Y-72350000D01*
X129697619Y-72326190D01*
X129602380Y-72326190D01*
X129554761Y-72350000D01*
X129530952Y-72373809D01*
X129507142Y-72421428D01*
X129507142Y-72540476D01*
X129530952Y-72588095D01*
X129554761Y-72611904D01*
X129602380Y-72635714D01*
X129697619Y-72635714D01*
X129745238Y-72611904D01*
X129769047Y-72588095D01*
X129792857Y-72540476D01*
G04 #@! TO.C,R10*
X136878571Y-71626190D02*
X136711904Y-71388095D01*
X136592857Y-71626190D02*
X136592857Y-71126190D01*
X136783333Y-71126190D01*
X136830952Y-71150000D01*
X136854761Y-71173809D01*
X136878571Y-71221428D01*
X136878571Y-71292857D01*
X136854761Y-71340476D01*
X136830952Y-71364285D01*
X136783333Y-71388095D01*
X136592857Y-71388095D01*
X137354761Y-71626190D02*
X137069047Y-71626190D01*
X137211904Y-71626190D02*
X137211904Y-71126190D01*
X137164285Y-71197619D01*
X137116666Y-71245238D01*
X137069047Y-71269047D01*
X137664285Y-71126190D02*
X137711904Y-71126190D01*
X137759523Y-71150000D01*
X137783333Y-71173809D01*
X137807142Y-71221428D01*
X137830952Y-71316666D01*
X137830952Y-71435714D01*
X137807142Y-71530952D01*
X137783333Y-71578571D01*
X137759523Y-71602380D01*
X137711904Y-71626190D01*
X137664285Y-71626190D01*
X137616666Y-71602380D01*
X137592857Y-71578571D01*
X137569047Y-71530952D01*
X137545238Y-71435714D01*
X137545238Y-71316666D01*
X137569047Y-71221428D01*
X137592857Y-71173809D01*
X137616666Y-71150000D01*
X137664285Y-71126190D01*
G04 #@! TO.C,R11*
X134878571Y-72726190D02*
X134711904Y-72488095D01*
X134592857Y-72726190D02*
X134592857Y-72226190D01*
X134783333Y-72226190D01*
X134830952Y-72250000D01*
X134854761Y-72273809D01*
X134878571Y-72321428D01*
X134878571Y-72392857D01*
X134854761Y-72440476D01*
X134830952Y-72464285D01*
X134783333Y-72488095D01*
X134592857Y-72488095D01*
X135354761Y-72726190D02*
X135069047Y-72726190D01*
X135211904Y-72726190D02*
X135211904Y-72226190D01*
X135164285Y-72297619D01*
X135116666Y-72345238D01*
X135069047Y-72369047D01*
X135830952Y-72726190D02*
X135545238Y-72726190D01*
X135688095Y-72726190D02*
X135688095Y-72226190D01*
X135640476Y-72297619D01*
X135592857Y-72345238D01*
X135545238Y-72369047D01*
G04 #@! TO.C,R12*
X142978571Y-71626190D02*
X142811904Y-71388095D01*
X142692857Y-71626190D02*
X142692857Y-71126190D01*
X142883333Y-71126190D01*
X142930952Y-71150000D01*
X142954761Y-71173809D01*
X142978571Y-71221428D01*
X142978571Y-71292857D01*
X142954761Y-71340476D01*
X142930952Y-71364285D01*
X142883333Y-71388095D01*
X142692857Y-71388095D01*
X143454761Y-71626190D02*
X143169047Y-71626190D01*
X143311904Y-71626190D02*
X143311904Y-71126190D01*
X143264285Y-71197619D01*
X143216666Y-71245238D01*
X143169047Y-71269047D01*
X143645238Y-71173809D02*
X143669047Y-71150000D01*
X143716666Y-71126190D01*
X143835714Y-71126190D01*
X143883333Y-71150000D01*
X143907142Y-71173809D01*
X143930952Y-71221428D01*
X143930952Y-71269047D01*
X143907142Y-71340476D01*
X143621428Y-71626190D01*
X143930952Y-71626190D01*
G04 #@! TO.C,R13*
X140978571Y-72726190D02*
X140811904Y-72488095D01*
X140692857Y-72726190D02*
X140692857Y-72226190D01*
X140883333Y-72226190D01*
X140930952Y-72250000D01*
X140954761Y-72273809D01*
X140978571Y-72321428D01*
X140978571Y-72392857D01*
X140954761Y-72440476D01*
X140930952Y-72464285D01*
X140883333Y-72488095D01*
X140692857Y-72488095D01*
X141454761Y-72726190D02*
X141169047Y-72726190D01*
X141311904Y-72726190D02*
X141311904Y-72226190D01*
X141264285Y-72297619D01*
X141216666Y-72345238D01*
X141169047Y-72369047D01*
X141621428Y-72226190D02*
X141930952Y-72226190D01*
X141764285Y-72416666D01*
X141835714Y-72416666D01*
X141883333Y-72440476D01*
X141907142Y-72464285D01*
X141930952Y-72511904D01*
X141930952Y-72630952D01*
X141907142Y-72678571D01*
X141883333Y-72702380D01*
X141835714Y-72726190D01*
X141692857Y-72726190D01*
X141645238Y-72702380D01*
X141621428Y-72678571D01*
G04 #@! TO.C,R14*
X114678571Y-71226190D02*
X114511904Y-70988095D01*
X114392857Y-71226190D02*
X114392857Y-70726190D01*
X114583333Y-70726190D01*
X114630952Y-70750000D01*
X114654761Y-70773809D01*
X114678571Y-70821428D01*
X114678571Y-70892857D01*
X114654761Y-70940476D01*
X114630952Y-70964285D01*
X114583333Y-70988095D01*
X114392857Y-70988095D01*
X115154761Y-71226190D02*
X114869047Y-71226190D01*
X115011904Y-71226190D02*
X115011904Y-70726190D01*
X114964285Y-70797619D01*
X114916666Y-70845238D01*
X114869047Y-70869047D01*
X115583333Y-70892857D02*
X115583333Y-71226190D01*
X115464285Y-70702380D02*
X115345238Y-71059523D01*
X115654761Y-71059523D01*
G04 #@! TO.C,R15*
X112578571Y-72426190D02*
X112411904Y-72188095D01*
X112292857Y-72426190D02*
X112292857Y-71926190D01*
X112483333Y-71926190D01*
X112530952Y-71950000D01*
X112554761Y-71973809D01*
X112578571Y-72021428D01*
X112578571Y-72092857D01*
X112554761Y-72140476D01*
X112530952Y-72164285D01*
X112483333Y-72188095D01*
X112292857Y-72188095D01*
X113054761Y-72426190D02*
X112769047Y-72426190D01*
X112911904Y-72426190D02*
X112911904Y-71926190D01*
X112864285Y-71997619D01*
X112816666Y-72045238D01*
X112769047Y-72069047D01*
X113507142Y-71926190D02*
X113269047Y-71926190D01*
X113245238Y-72164285D01*
X113269047Y-72140476D01*
X113316666Y-72116666D01*
X113435714Y-72116666D01*
X113483333Y-72140476D01*
X113507142Y-72164285D01*
X113530952Y-72211904D01*
X113530952Y-72330952D01*
X113507142Y-72378571D01*
X113483333Y-72402380D01*
X113435714Y-72426190D01*
X113316666Y-72426190D01*
X113269047Y-72402380D01*
X113245238Y-72378571D01*
G04 #@! TO.C,R16*
X144578571Y-118226190D02*
X144411904Y-117988095D01*
X144292857Y-118226190D02*
X144292857Y-117726190D01*
X144483333Y-117726190D01*
X144530952Y-117750000D01*
X144554761Y-117773809D01*
X144578571Y-117821428D01*
X144578571Y-117892857D01*
X144554761Y-117940476D01*
X144530952Y-117964285D01*
X144483333Y-117988095D01*
X144292857Y-117988095D01*
X145054761Y-118226190D02*
X144769047Y-118226190D01*
X144911904Y-118226190D02*
X144911904Y-117726190D01*
X144864285Y-117797619D01*
X144816666Y-117845238D01*
X144769047Y-117869047D01*
X145483333Y-117726190D02*
X145388095Y-117726190D01*
X145340476Y-117750000D01*
X145316666Y-117773809D01*
X145269047Y-117845238D01*
X145245238Y-117940476D01*
X145245238Y-118130952D01*
X145269047Y-118178571D01*
X145292857Y-118202380D01*
X145340476Y-118226190D01*
X145435714Y-118226190D01*
X145483333Y-118202380D01*
X145507142Y-118178571D01*
X145530952Y-118130952D01*
X145530952Y-118011904D01*
X145507142Y-117964285D01*
X145483333Y-117940476D01*
X145435714Y-117916666D01*
X145340476Y-117916666D01*
X145292857Y-117940476D01*
X145269047Y-117964285D01*
X145245238Y-118011904D01*
G04 #@! TO.C,R17*
X139878571Y-129626190D02*
X139711904Y-129388095D01*
X139592857Y-129626190D02*
X139592857Y-129126190D01*
X139783333Y-129126190D01*
X139830952Y-129150000D01*
X139854761Y-129173809D01*
X139878571Y-129221428D01*
X139878571Y-129292857D01*
X139854761Y-129340476D01*
X139830952Y-129364285D01*
X139783333Y-129388095D01*
X139592857Y-129388095D01*
X140354761Y-129626190D02*
X140069047Y-129626190D01*
X140211904Y-129626190D02*
X140211904Y-129126190D01*
X140164285Y-129197619D01*
X140116666Y-129245238D01*
X140069047Y-129269047D01*
X140521428Y-129126190D02*
X140854761Y-129126190D01*
X140640476Y-129626190D01*
G04 #@! TO.C,R18*
X137678571Y-128426190D02*
X137511904Y-128188095D01*
X137392857Y-128426190D02*
X137392857Y-127926190D01*
X137583333Y-127926190D01*
X137630952Y-127950000D01*
X137654761Y-127973809D01*
X137678571Y-128021428D01*
X137678571Y-128092857D01*
X137654761Y-128140476D01*
X137630952Y-128164285D01*
X137583333Y-128188095D01*
X137392857Y-128188095D01*
X138154761Y-128426190D02*
X137869047Y-128426190D01*
X138011904Y-128426190D02*
X138011904Y-127926190D01*
X137964285Y-127997619D01*
X137916666Y-128045238D01*
X137869047Y-128069047D01*
X138440476Y-128140476D02*
X138392857Y-128116666D01*
X138369047Y-128092857D01*
X138345238Y-128045238D01*
X138345238Y-128021428D01*
X138369047Y-127973809D01*
X138392857Y-127950000D01*
X138440476Y-127926190D01*
X138535714Y-127926190D01*
X138583333Y-127950000D01*
X138607142Y-127973809D01*
X138630952Y-128021428D01*
X138630952Y-128045238D01*
X138607142Y-128092857D01*
X138583333Y-128116666D01*
X138535714Y-128140476D01*
X138440476Y-128140476D01*
X138392857Y-128164285D01*
X138369047Y-128188095D01*
X138345238Y-128235714D01*
X138345238Y-128330952D01*
X138369047Y-128378571D01*
X138392857Y-128402380D01*
X138440476Y-128426190D01*
X138535714Y-128426190D01*
X138583333Y-128402380D01*
X138607142Y-128378571D01*
X138630952Y-128330952D01*
X138630952Y-128235714D01*
X138607142Y-128188095D01*
X138583333Y-128164285D01*
X138535714Y-128140476D01*
G04 #@! TO.C,R19*
X183478571Y-127726190D02*
X183311904Y-127488095D01*
X183192857Y-127726190D02*
X183192857Y-127226190D01*
X183383333Y-127226190D01*
X183430952Y-127250000D01*
X183454761Y-127273809D01*
X183478571Y-127321428D01*
X183478571Y-127392857D01*
X183454761Y-127440476D01*
X183430952Y-127464285D01*
X183383333Y-127488095D01*
X183192857Y-127488095D01*
X183954761Y-127726190D02*
X183669047Y-127726190D01*
X183811904Y-127726190D02*
X183811904Y-127226190D01*
X183764285Y-127297619D01*
X183716666Y-127345238D01*
X183669047Y-127369047D01*
X184192857Y-127726190D02*
X184288095Y-127726190D01*
X184335714Y-127702380D01*
X184359523Y-127678571D01*
X184407142Y-127607142D01*
X184430952Y-127511904D01*
X184430952Y-127321428D01*
X184407142Y-127273809D01*
X184383333Y-127250000D01*
X184335714Y-127226190D01*
X184240476Y-127226190D01*
X184192857Y-127250000D01*
X184169047Y-127273809D01*
X184145238Y-127321428D01*
X184145238Y-127440476D01*
X184169047Y-127488095D01*
X184192857Y-127511904D01*
X184240476Y-127535714D01*
X184335714Y-127535714D01*
X184383333Y-127511904D01*
X184407142Y-127488095D01*
X184430952Y-127440476D01*
G04 #@! TO.C,R20*
X181478571Y-128926190D02*
X181311904Y-128688095D01*
X181192857Y-128926190D02*
X181192857Y-128426190D01*
X181383333Y-128426190D01*
X181430952Y-128450000D01*
X181454761Y-128473809D01*
X181478571Y-128521428D01*
X181478571Y-128592857D01*
X181454761Y-128640476D01*
X181430952Y-128664285D01*
X181383333Y-128688095D01*
X181192857Y-128688095D01*
X181669047Y-128473809D02*
X181692857Y-128450000D01*
X181740476Y-128426190D01*
X181859523Y-128426190D01*
X181907142Y-128450000D01*
X181930952Y-128473809D01*
X181954761Y-128521428D01*
X181954761Y-128569047D01*
X181930952Y-128640476D01*
X181645238Y-128926190D01*
X181954761Y-128926190D01*
X182264285Y-128426190D02*
X182311904Y-128426190D01*
X182359523Y-128450000D01*
X182383333Y-128473809D01*
X182407142Y-128521428D01*
X182430952Y-128616666D01*
X182430952Y-128735714D01*
X182407142Y-128830952D01*
X182383333Y-128878571D01*
X182359523Y-128902380D01*
X182311904Y-128926190D01*
X182264285Y-128926190D01*
X182216666Y-128902380D01*
X182192857Y-128878571D01*
X182169047Y-128830952D01*
X182145238Y-128735714D01*
X182145238Y-128616666D01*
X182169047Y-128521428D01*
X182192857Y-128473809D01*
X182216666Y-128450000D01*
X182264285Y-128426190D01*
G04 #@! TO.C,R21*
X177978571Y-127626190D02*
X177811904Y-127388095D01*
X177692857Y-127626190D02*
X177692857Y-127126190D01*
X177883333Y-127126190D01*
X177930952Y-127150000D01*
X177954761Y-127173809D01*
X177978571Y-127221428D01*
X177978571Y-127292857D01*
X177954761Y-127340476D01*
X177930952Y-127364285D01*
X177883333Y-127388095D01*
X177692857Y-127388095D01*
X178169047Y-127173809D02*
X178192857Y-127150000D01*
X178240476Y-127126190D01*
X178359523Y-127126190D01*
X178407142Y-127150000D01*
X178430952Y-127173809D01*
X178454761Y-127221428D01*
X178454761Y-127269047D01*
X178430952Y-127340476D01*
X178145238Y-127626190D01*
X178454761Y-127626190D01*
X178930952Y-127626190D02*
X178645238Y-127626190D01*
X178788095Y-127626190D02*
X178788095Y-127126190D01*
X178740476Y-127197619D01*
X178692857Y-127245238D01*
X178645238Y-127269047D01*
G04 #@! TO.C,R22*
X175978571Y-128826190D02*
X175811904Y-128588095D01*
X175692857Y-128826190D02*
X175692857Y-128326190D01*
X175883333Y-128326190D01*
X175930952Y-128350000D01*
X175954761Y-128373809D01*
X175978571Y-128421428D01*
X175978571Y-128492857D01*
X175954761Y-128540476D01*
X175930952Y-128564285D01*
X175883333Y-128588095D01*
X175692857Y-128588095D01*
X176169047Y-128373809D02*
X176192857Y-128350000D01*
X176240476Y-128326190D01*
X176359523Y-128326190D01*
X176407142Y-128350000D01*
X176430952Y-128373809D01*
X176454761Y-128421428D01*
X176454761Y-128469047D01*
X176430952Y-128540476D01*
X176145238Y-128826190D01*
X176454761Y-128826190D01*
X176645238Y-128373809D02*
X176669047Y-128350000D01*
X176716666Y-128326190D01*
X176835714Y-128326190D01*
X176883333Y-128350000D01*
X176907142Y-128373809D01*
X176930952Y-128421428D01*
X176930952Y-128469047D01*
X176907142Y-128540476D01*
X176621428Y-128826190D01*
X176930952Y-128826190D01*
G04 #@! TO.C,R23*
X172478571Y-127626190D02*
X172311904Y-127388095D01*
X172192857Y-127626190D02*
X172192857Y-127126190D01*
X172383333Y-127126190D01*
X172430952Y-127150000D01*
X172454761Y-127173809D01*
X172478571Y-127221428D01*
X172478571Y-127292857D01*
X172454761Y-127340476D01*
X172430952Y-127364285D01*
X172383333Y-127388095D01*
X172192857Y-127388095D01*
X172669047Y-127173809D02*
X172692857Y-127150000D01*
X172740476Y-127126190D01*
X172859523Y-127126190D01*
X172907142Y-127150000D01*
X172930952Y-127173809D01*
X172954761Y-127221428D01*
X172954761Y-127269047D01*
X172930952Y-127340476D01*
X172645238Y-127626190D01*
X172954761Y-127626190D01*
X173121428Y-127126190D02*
X173430952Y-127126190D01*
X173264285Y-127316666D01*
X173335714Y-127316666D01*
X173383333Y-127340476D01*
X173407142Y-127364285D01*
X173430952Y-127411904D01*
X173430952Y-127530952D01*
X173407142Y-127578571D01*
X173383333Y-127602380D01*
X173335714Y-127626190D01*
X173192857Y-127626190D01*
X173145238Y-127602380D01*
X173121428Y-127578571D01*
G04 #@! TO.C,R24*
X170478571Y-128826190D02*
X170311904Y-128588095D01*
X170192857Y-128826190D02*
X170192857Y-128326190D01*
X170383333Y-128326190D01*
X170430952Y-128350000D01*
X170454761Y-128373809D01*
X170478571Y-128421428D01*
X170478571Y-128492857D01*
X170454761Y-128540476D01*
X170430952Y-128564285D01*
X170383333Y-128588095D01*
X170192857Y-128588095D01*
X170669047Y-128373809D02*
X170692857Y-128350000D01*
X170740476Y-128326190D01*
X170859523Y-128326190D01*
X170907142Y-128350000D01*
X170930952Y-128373809D01*
X170954761Y-128421428D01*
X170954761Y-128469047D01*
X170930952Y-128540476D01*
X170645238Y-128826190D01*
X170954761Y-128826190D01*
X171383333Y-128492857D02*
X171383333Y-128826190D01*
X171264285Y-128302380D02*
X171145238Y-128659523D01*
X171454761Y-128659523D01*
G04 #@! TO.C,R25*
X166978571Y-127626190D02*
X166811904Y-127388095D01*
X166692857Y-127626190D02*
X166692857Y-127126190D01*
X166883333Y-127126190D01*
X166930952Y-127150000D01*
X166954761Y-127173809D01*
X166978571Y-127221428D01*
X166978571Y-127292857D01*
X166954761Y-127340476D01*
X166930952Y-127364285D01*
X166883333Y-127388095D01*
X166692857Y-127388095D01*
X167169047Y-127173809D02*
X167192857Y-127150000D01*
X167240476Y-127126190D01*
X167359523Y-127126190D01*
X167407142Y-127150000D01*
X167430952Y-127173809D01*
X167454761Y-127221428D01*
X167454761Y-127269047D01*
X167430952Y-127340476D01*
X167145238Y-127626190D01*
X167454761Y-127626190D01*
X167907142Y-127126190D02*
X167669047Y-127126190D01*
X167645238Y-127364285D01*
X167669047Y-127340476D01*
X167716666Y-127316666D01*
X167835714Y-127316666D01*
X167883333Y-127340476D01*
X167907142Y-127364285D01*
X167930952Y-127411904D01*
X167930952Y-127530952D01*
X167907142Y-127578571D01*
X167883333Y-127602380D01*
X167835714Y-127626190D01*
X167716666Y-127626190D01*
X167669047Y-127602380D01*
X167645238Y-127578571D01*
G04 #@! TO.C,R26*
X164778571Y-128726190D02*
X164611904Y-128488095D01*
X164492857Y-128726190D02*
X164492857Y-128226190D01*
X164683333Y-128226190D01*
X164730952Y-128250000D01*
X164754761Y-128273809D01*
X164778571Y-128321428D01*
X164778571Y-128392857D01*
X164754761Y-128440476D01*
X164730952Y-128464285D01*
X164683333Y-128488095D01*
X164492857Y-128488095D01*
X164969047Y-128273809D02*
X164992857Y-128250000D01*
X165040476Y-128226190D01*
X165159523Y-128226190D01*
X165207142Y-128250000D01*
X165230952Y-128273809D01*
X165254761Y-128321428D01*
X165254761Y-128369047D01*
X165230952Y-128440476D01*
X164945238Y-128726190D01*
X165254761Y-128726190D01*
X165683333Y-128226190D02*
X165588095Y-128226190D01*
X165540476Y-128250000D01*
X165516666Y-128273809D01*
X165469047Y-128345238D01*
X165445238Y-128440476D01*
X165445238Y-128630952D01*
X165469047Y-128678571D01*
X165492857Y-128702380D01*
X165540476Y-128726190D01*
X165635714Y-128726190D01*
X165683333Y-128702380D01*
X165707142Y-128678571D01*
X165730952Y-128630952D01*
X165730952Y-128511904D01*
X165707142Y-128464285D01*
X165683333Y-128440476D01*
X165635714Y-128416666D01*
X165540476Y-128416666D01*
X165492857Y-128440476D01*
X165469047Y-128464285D01*
X165445238Y-128511904D01*
G04 #@! TO.C,R27*
X160678571Y-127626190D02*
X160511904Y-127388095D01*
X160392857Y-127626190D02*
X160392857Y-127126190D01*
X160583333Y-127126190D01*
X160630952Y-127150000D01*
X160654761Y-127173809D01*
X160678571Y-127221428D01*
X160678571Y-127292857D01*
X160654761Y-127340476D01*
X160630952Y-127364285D01*
X160583333Y-127388095D01*
X160392857Y-127388095D01*
X160869047Y-127173809D02*
X160892857Y-127150000D01*
X160940476Y-127126190D01*
X161059523Y-127126190D01*
X161107142Y-127150000D01*
X161130952Y-127173809D01*
X161154761Y-127221428D01*
X161154761Y-127269047D01*
X161130952Y-127340476D01*
X160845238Y-127626190D01*
X161154761Y-127626190D01*
X161321428Y-127126190D02*
X161654761Y-127126190D01*
X161440476Y-127626190D01*
G04 #@! TO.C,R28*
X158578571Y-128826190D02*
X158411904Y-128588095D01*
X158292857Y-128826190D02*
X158292857Y-128326190D01*
X158483333Y-128326190D01*
X158530952Y-128350000D01*
X158554761Y-128373809D01*
X158578571Y-128421428D01*
X158578571Y-128492857D01*
X158554761Y-128540476D01*
X158530952Y-128564285D01*
X158483333Y-128588095D01*
X158292857Y-128588095D01*
X158769047Y-128373809D02*
X158792857Y-128350000D01*
X158840476Y-128326190D01*
X158959523Y-128326190D01*
X159007142Y-128350000D01*
X159030952Y-128373809D01*
X159054761Y-128421428D01*
X159054761Y-128469047D01*
X159030952Y-128540476D01*
X158745238Y-128826190D01*
X159054761Y-128826190D01*
X159340476Y-128540476D02*
X159292857Y-128516666D01*
X159269047Y-128492857D01*
X159245238Y-128445238D01*
X159245238Y-128421428D01*
X159269047Y-128373809D01*
X159292857Y-128350000D01*
X159340476Y-128326190D01*
X159435714Y-128326190D01*
X159483333Y-128350000D01*
X159507142Y-128373809D01*
X159530952Y-128421428D01*
X159530952Y-128445238D01*
X159507142Y-128492857D01*
X159483333Y-128516666D01*
X159435714Y-128540476D01*
X159340476Y-128540476D01*
X159292857Y-128564285D01*
X159269047Y-128588095D01*
X159245238Y-128635714D01*
X159245238Y-128730952D01*
X159269047Y-128778571D01*
X159292857Y-128802380D01*
X159340476Y-128826190D01*
X159435714Y-128826190D01*
X159483333Y-128802380D01*
X159507142Y-128778571D01*
X159530952Y-128730952D01*
X159530952Y-128635714D01*
X159507142Y-128588095D01*
X159483333Y-128564285D01*
X159435714Y-128540476D01*
G04 #@! TO.C,R29*
X189578571Y-127626190D02*
X189411904Y-127388095D01*
X189292857Y-127626190D02*
X189292857Y-127126190D01*
X189483333Y-127126190D01*
X189530952Y-127150000D01*
X189554761Y-127173809D01*
X189578571Y-127221428D01*
X189578571Y-127292857D01*
X189554761Y-127340476D01*
X189530952Y-127364285D01*
X189483333Y-127388095D01*
X189292857Y-127388095D01*
X189769047Y-127173809D02*
X189792857Y-127150000D01*
X189840476Y-127126190D01*
X189959523Y-127126190D01*
X190007142Y-127150000D01*
X190030952Y-127173809D01*
X190054761Y-127221428D01*
X190054761Y-127269047D01*
X190030952Y-127340476D01*
X189745238Y-127626190D01*
X190054761Y-127626190D01*
X190292857Y-127626190D02*
X190388095Y-127626190D01*
X190435714Y-127602380D01*
X190459523Y-127578571D01*
X190507142Y-127507142D01*
X190530952Y-127411904D01*
X190530952Y-127221428D01*
X190507142Y-127173809D01*
X190483333Y-127150000D01*
X190435714Y-127126190D01*
X190340476Y-127126190D01*
X190292857Y-127150000D01*
X190269047Y-127173809D01*
X190245238Y-127221428D01*
X190245238Y-127340476D01*
X190269047Y-127388095D01*
X190292857Y-127411904D01*
X190340476Y-127435714D01*
X190435714Y-127435714D01*
X190483333Y-127411904D01*
X190507142Y-127388095D01*
X190530952Y-127340476D01*
G04 #@! TO.C,R30*
X187478571Y-128826190D02*
X187311904Y-128588095D01*
X187192857Y-128826190D02*
X187192857Y-128326190D01*
X187383333Y-128326190D01*
X187430952Y-128350000D01*
X187454761Y-128373809D01*
X187478571Y-128421428D01*
X187478571Y-128492857D01*
X187454761Y-128540476D01*
X187430952Y-128564285D01*
X187383333Y-128588095D01*
X187192857Y-128588095D01*
X187645238Y-128326190D02*
X187954761Y-128326190D01*
X187788095Y-128516666D01*
X187859523Y-128516666D01*
X187907142Y-128540476D01*
X187930952Y-128564285D01*
X187954761Y-128611904D01*
X187954761Y-128730952D01*
X187930952Y-128778571D01*
X187907142Y-128802380D01*
X187859523Y-128826190D01*
X187716666Y-128826190D01*
X187669047Y-128802380D01*
X187645238Y-128778571D01*
X188264285Y-128326190D02*
X188311904Y-128326190D01*
X188359523Y-128350000D01*
X188383333Y-128373809D01*
X188407142Y-128421428D01*
X188430952Y-128516666D01*
X188430952Y-128635714D01*
X188407142Y-128730952D01*
X188383333Y-128778571D01*
X188359523Y-128802380D01*
X188311904Y-128826190D01*
X188264285Y-128826190D01*
X188216666Y-128802380D01*
X188192857Y-128778571D01*
X188169047Y-128730952D01*
X188145238Y-128635714D01*
X188145238Y-128516666D01*
X188169047Y-128421428D01*
X188192857Y-128373809D01*
X188216666Y-128350000D01*
X188264285Y-128326190D01*
G04 #@! TO.C,U1*
X177926190Y-98080952D02*
X178330952Y-98080952D01*
X178378571Y-98057142D01*
X178402380Y-98033333D01*
X178426190Y-97985714D01*
X178426190Y-97890476D01*
X178402380Y-97842857D01*
X178378571Y-97819047D01*
X178330952Y-97795238D01*
X177926190Y-97795238D01*
X178426190Y-97295238D02*
X178426190Y-97580952D01*
X178426190Y-97438095D02*
X177926190Y-97438095D01*
X177997619Y-97485714D01*
X178045238Y-97533333D01*
X178069047Y-97580952D01*
X178402380Y-96542857D02*
X178426190Y-96471428D01*
X178426190Y-96352380D01*
X178402380Y-96304761D01*
X178378571Y-96280952D01*
X178330952Y-96257142D01*
X178283333Y-96257142D01*
X178235714Y-96280952D01*
X178211904Y-96304761D01*
X178188095Y-96352380D01*
X178164285Y-96447619D01*
X178140476Y-96495238D01*
X178116666Y-96519047D01*
X178069047Y-96542857D01*
X178021428Y-96542857D01*
X177973809Y-96519047D01*
X177950000Y-96495238D01*
X177926190Y-96447619D01*
X177926190Y-96328571D01*
X177950000Y-96257142D01*
X178402380Y-95852380D02*
X178426190Y-95900000D01*
X178426190Y-95995238D01*
X178402380Y-96042857D01*
X178354761Y-96066666D01*
X178164285Y-96066666D01*
X178116666Y-96042857D01*
X178092857Y-95995238D01*
X178092857Y-95900000D01*
X178116666Y-95852380D01*
X178164285Y-95828571D01*
X178211904Y-95828571D01*
X178259523Y-96066666D01*
X178402380Y-95423809D02*
X178426190Y-95471428D01*
X178426190Y-95566666D01*
X178402380Y-95614285D01*
X178354761Y-95638095D01*
X178164285Y-95638095D01*
X178116666Y-95614285D01*
X178092857Y-95566666D01*
X178092857Y-95471428D01*
X178116666Y-95423809D01*
X178164285Y-95400000D01*
X178211904Y-95400000D01*
X178259523Y-95638095D01*
X178402380Y-94995238D02*
X178426190Y-95042857D01*
X178426190Y-95138095D01*
X178402380Y-95185714D01*
X178354761Y-95209523D01*
X178164285Y-95209523D01*
X178116666Y-95185714D01*
X178092857Y-95138095D01*
X178092857Y-95042857D01*
X178116666Y-94995238D01*
X178164285Y-94971428D01*
X178211904Y-94971428D01*
X178259523Y-95209523D01*
X178426190Y-94542857D02*
X177926190Y-94542857D01*
X178402380Y-94542857D02*
X178426190Y-94590476D01*
X178426190Y-94685714D01*
X178402380Y-94733333D01*
X178378571Y-94757142D01*
X178330952Y-94780952D01*
X178188095Y-94780952D01*
X178140476Y-94757142D01*
X178116666Y-94733333D01*
X178092857Y-94685714D01*
X178092857Y-94590476D01*
X178116666Y-94542857D01*
X178092857Y-94090476D02*
X178426190Y-94090476D01*
X178092857Y-94304761D02*
X178354761Y-94304761D01*
X178402380Y-94280952D01*
X178426190Y-94233333D01*
X178426190Y-94161904D01*
X178402380Y-94114285D01*
X178378571Y-94090476D01*
X178426190Y-93852380D02*
X178092857Y-93852380D01*
X177926190Y-93852380D02*
X177950000Y-93876190D01*
X177973809Y-93852380D01*
X177950000Y-93828571D01*
X177926190Y-93852380D01*
X177973809Y-93852380D01*
X178092857Y-93614285D02*
X178426190Y-93614285D01*
X178140476Y-93614285D02*
X178116666Y-93590476D01*
X178092857Y-93542857D01*
X178092857Y-93471428D01*
X178116666Y-93423809D01*
X178164285Y-93400000D01*
X178426190Y-93400000D01*
X178426190Y-93090476D02*
X178402380Y-93138095D01*
X178378571Y-93161904D01*
X178330952Y-93185714D01*
X178188095Y-93185714D01*
X178140476Y-93161904D01*
X178116666Y-93138095D01*
X178092857Y-93090476D01*
X178092857Y-93019047D01*
X178116666Y-92971428D01*
X178140476Y-92947619D01*
X178188095Y-92923809D01*
X178330952Y-92923809D01*
X178378571Y-92947619D01*
X178402380Y-92971428D01*
X178426190Y-93019047D01*
X178426190Y-93090476D01*
X177926190Y-92757142D02*
X178426190Y-92423809D01*
X177926190Y-92423809D02*
X178426190Y-92757142D01*
X178426190Y-92233333D02*
X177926190Y-92233333D01*
X178283333Y-92019047D02*
X178283333Y-91780952D01*
X178426190Y-92066666D02*
X177926190Y-91900000D01*
X178426190Y-91733333D01*
X177926190Y-91471428D02*
X177926190Y-91376190D01*
X177950000Y-91328571D01*
X177997619Y-91280952D01*
X178092857Y-91257142D01*
X178259523Y-91257142D01*
X178354761Y-91280952D01*
X178402380Y-91328571D01*
X178426190Y-91376190D01*
X178426190Y-91471428D01*
X178402380Y-91519047D01*
X178354761Y-91566666D01*
X178259523Y-91590476D01*
X178092857Y-91590476D01*
X177997619Y-91566666D01*
X177950000Y-91519047D01*
X177926190Y-91471428D01*
G04 #@! TO.C,C23*
X134978571Y-124678571D02*
X134954761Y-124702380D01*
X134883333Y-124726190D01*
X134835714Y-124726190D01*
X134764285Y-124702380D01*
X134716666Y-124654761D01*
X134692857Y-124607142D01*
X134669047Y-124511904D01*
X134669047Y-124440476D01*
X134692857Y-124345238D01*
X134716666Y-124297619D01*
X134764285Y-124250000D01*
X134835714Y-124226190D01*
X134883333Y-124226190D01*
X134954761Y-124250000D01*
X134978571Y-124273809D01*
X135169047Y-124273809D02*
X135192857Y-124250000D01*
X135240476Y-124226190D01*
X135359523Y-124226190D01*
X135407142Y-124250000D01*
X135430952Y-124273809D01*
X135454761Y-124321428D01*
X135454761Y-124369047D01*
X135430952Y-124440476D01*
X135145238Y-124726190D01*
X135454761Y-124726190D01*
X135621428Y-124226190D02*
X135930952Y-124226190D01*
X135764285Y-124416666D01*
X135835714Y-124416666D01*
X135883333Y-124440476D01*
X135907142Y-124464285D01*
X135930952Y-124511904D01*
X135930952Y-124630952D01*
X135907142Y-124678571D01*
X135883333Y-124702380D01*
X135835714Y-124726190D01*
X135692857Y-124726190D01*
X135645238Y-124702380D01*
X135621428Y-124678571D01*
G04 #@! TO.C,C24*
X136578571Y-121278571D02*
X136554761Y-121302380D01*
X136483333Y-121326190D01*
X136435714Y-121326190D01*
X136364285Y-121302380D01*
X136316666Y-121254761D01*
X136292857Y-121207142D01*
X136269047Y-121111904D01*
X136269047Y-121040476D01*
X136292857Y-120945238D01*
X136316666Y-120897619D01*
X136364285Y-120850000D01*
X136435714Y-120826190D01*
X136483333Y-120826190D01*
X136554761Y-120850000D01*
X136578571Y-120873809D01*
X136769047Y-120873809D02*
X136792857Y-120850000D01*
X136840476Y-120826190D01*
X136959523Y-120826190D01*
X137007142Y-120850000D01*
X137030952Y-120873809D01*
X137054761Y-120921428D01*
X137054761Y-120969047D01*
X137030952Y-121040476D01*
X136745238Y-121326190D01*
X137054761Y-121326190D01*
X137483333Y-120992857D02*
X137483333Y-121326190D01*
X137364285Y-120802380D02*
X137245238Y-121159523D01*
X137554761Y-121159523D01*
G04 #@! TO.C,IC6*
X129811904Y-123826190D02*
X129811904Y-123326190D01*
X130335714Y-123778571D02*
X130311904Y-123802380D01*
X130240476Y-123826190D01*
X130192857Y-123826190D01*
X130121428Y-123802380D01*
X130073809Y-123754761D01*
X130050000Y-123707142D01*
X130026190Y-123611904D01*
X130026190Y-123540476D01*
X130050000Y-123445238D01*
X130073809Y-123397619D01*
X130121428Y-123350000D01*
X130192857Y-123326190D01*
X130240476Y-123326190D01*
X130311904Y-123350000D01*
X130335714Y-123373809D01*
X130764285Y-123326190D02*
X130669047Y-123326190D01*
X130621428Y-123350000D01*
X130597619Y-123373809D01*
X130550000Y-123445238D01*
X130526190Y-123540476D01*
X130526190Y-123730952D01*
X130550000Y-123778571D01*
X130573809Y-123802380D01*
X130621428Y-123826190D01*
X130716666Y-123826190D01*
X130764285Y-123802380D01*
X130788095Y-123778571D01*
X130811904Y-123730952D01*
X130811904Y-123611904D01*
X130788095Y-123564285D01*
X130764285Y-123540476D01*
X130716666Y-123516666D01*
X130621428Y-123516666D01*
X130573809Y-123540476D01*
X130550000Y-123564285D01*
X130526190Y-123611904D01*
G04 #@! TO.C,D1*
X167830952Y-70626190D02*
X167830952Y-70126190D01*
X167950000Y-70126190D01*
X168021428Y-70150000D01*
X168069047Y-70197619D01*
X168092857Y-70245238D01*
X168116666Y-70340476D01*
X168116666Y-70411904D01*
X168092857Y-70507142D01*
X168069047Y-70554761D01*
X168021428Y-70602380D01*
X167950000Y-70626190D01*
X167830952Y-70626190D01*
X168592857Y-70626190D02*
X168307142Y-70626190D01*
X168450000Y-70626190D02*
X168450000Y-70126190D01*
X168402380Y-70197619D01*
X168354761Y-70245238D01*
X168307142Y-70269047D01*
G04 #@! TO.C,D2*
X121530952Y-70426190D02*
X121530952Y-69926190D01*
X121650000Y-69926190D01*
X121721428Y-69950000D01*
X121769047Y-69997619D01*
X121792857Y-70045238D01*
X121816666Y-70140476D01*
X121816666Y-70211904D01*
X121792857Y-70307142D01*
X121769047Y-70354761D01*
X121721428Y-70402380D01*
X121650000Y-70426190D01*
X121530952Y-70426190D01*
X122007142Y-69973809D02*
X122030952Y-69950000D01*
X122078571Y-69926190D01*
X122197619Y-69926190D01*
X122245238Y-69950000D01*
X122269047Y-69973809D01*
X122292857Y-70021428D01*
X122292857Y-70069047D01*
X122269047Y-70140476D01*
X121983333Y-70426190D01*
X122292857Y-70426190D01*
G04 #@! TO.C,D3*
X126730952Y-70626190D02*
X126730952Y-70126190D01*
X126850000Y-70126190D01*
X126921428Y-70150000D01*
X126969047Y-70197619D01*
X126992857Y-70245238D01*
X127016666Y-70340476D01*
X127016666Y-70411904D01*
X126992857Y-70507142D01*
X126969047Y-70554761D01*
X126921428Y-70602380D01*
X126850000Y-70626190D01*
X126730952Y-70626190D01*
X127183333Y-70126190D02*
X127492857Y-70126190D01*
X127326190Y-70316666D01*
X127397619Y-70316666D01*
X127445238Y-70340476D01*
X127469047Y-70364285D01*
X127492857Y-70411904D01*
X127492857Y-70530952D01*
X127469047Y-70578571D01*
X127445238Y-70602380D01*
X127397619Y-70626190D01*
X127254761Y-70626190D01*
X127207142Y-70602380D01*
X127183333Y-70578571D01*
G04 #@! TO.C,D4*
X132730952Y-70626190D02*
X132730952Y-70126190D01*
X132850000Y-70126190D01*
X132921428Y-70150000D01*
X132969047Y-70197619D01*
X132992857Y-70245238D01*
X133016666Y-70340476D01*
X133016666Y-70411904D01*
X132992857Y-70507142D01*
X132969047Y-70554761D01*
X132921428Y-70602380D01*
X132850000Y-70626190D01*
X132730952Y-70626190D01*
X133445238Y-70292857D02*
X133445238Y-70626190D01*
X133326190Y-70102380D02*
X133207142Y-70459523D01*
X133516666Y-70459523D01*
G04 #@! TO.C,D5*
X138530952Y-70626190D02*
X138530952Y-70126190D01*
X138650000Y-70126190D01*
X138721428Y-70150000D01*
X138769047Y-70197619D01*
X138792857Y-70245238D01*
X138816666Y-70340476D01*
X138816666Y-70411904D01*
X138792857Y-70507142D01*
X138769047Y-70554761D01*
X138721428Y-70602380D01*
X138650000Y-70626190D01*
X138530952Y-70626190D01*
X139269047Y-70126190D02*
X139030952Y-70126190D01*
X139007142Y-70364285D01*
X139030952Y-70340476D01*
X139078571Y-70316666D01*
X139197619Y-70316666D01*
X139245238Y-70340476D01*
X139269047Y-70364285D01*
X139292857Y-70411904D01*
X139292857Y-70530952D01*
X139269047Y-70578571D01*
X139245238Y-70602380D01*
X139197619Y-70626190D01*
X139078571Y-70626190D01*
X139030952Y-70602380D01*
X139007142Y-70578571D01*
G04 #@! TO.C,D6*
X144430952Y-70626190D02*
X144430952Y-70126190D01*
X144550000Y-70126190D01*
X144621428Y-70150000D01*
X144669047Y-70197619D01*
X144692857Y-70245238D01*
X144716666Y-70340476D01*
X144716666Y-70411904D01*
X144692857Y-70507142D01*
X144669047Y-70554761D01*
X144621428Y-70602380D01*
X144550000Y-70626190D01*
X144430952Y-70626190D01*
X145145238Y-70126190D02*
X145050000Y-70126190D01*
X145002380Y-70150000D01*
X144978571Y-70173809D01*
X144930952Y-70245238D01*
X144907142Y-70340476D01*
X144907142Y-70530952D01*
X144930952Y-70578571D01*
X144954761Y-70602380D01*
X145002380Y-70626190D01*
X145097619Y-70626190D01*
X145145238Y-70602380D01*
X145169047Y-70578571D01*
X145192857Y-70530952D01*
X145192857Y-70411904D01*
X145169047Y-70364285D01*
X145145238Y-70340476D01*
X145097619Y-70316666D01*
X145002380Y-70316666D01*
X144954761Y-70340476D01*
X144930952Y-70364285D01*
X144907142Y-70411904D01*
G04 #@! TO.C,D7*
X116130952Y-70626190D02*
X116130952Y-70126190D01*
X116250000Y-70126190D01*
X116321428Y-70150000D01*
X116369047Y-70197619D01*
X116392857Y-70245238D01*
X116416666Y-70340476D01*
X116416666Y-70411904D01*
X116392857Y-70507142D01*
X116369047Y-70554761D01*
X116321428Y-70602380D01*
X116250000Y-70626190D01*
X116130952Y-70626190D01*
X116583333Y-70126190D02*
X116916666Y-70126190D01*
X116702380Y-70626190D01*
G04 #@! TO.C,D8*
X133130952Y-129026190D02*
X133130952Y-128526190D01*
X133250000Y-128526190D01*
X133321428Y-128550000D01*
X133369047Y-128597619D01*
X133392857Y-128645238D01*
X133416666Y-128740476D01*
X133416666Y-128811904D01*
X133392857Y-128907142D01*
X133369047Y-128954761D01*
X133321428Y-129002380D01*
X133250000Y-129026190D01*
X133130952Y-129026190D01*
X133702380Y-128740476D02*
X133654761Y-128716666D01*
X133630952Y-128692857D01*
X133607142Y-128645238D01*
X133607142Y-128621428D01*
X133630952Y-128573809D01*
X133654761Y-128550000D01*
X133702380Y-128526190D01*
X133797619Y-128526190D01*
X133845238Y-128550000D01*
X133869047Y-128573809D01*
X133892857Y-128621428D01*
X133892857Y-128645238D01*
X133869047Y-128692857D01*
X133845238Y-128716666D01*
X133797619Y-128740476D01*
X133702380Y-128740476D01*
X133654761Y-128764285D01*
X133630952Y-128788095D01*
X133607142Y-128835714D01*
X133607142Y-128930952D01*
X133630952Y-128978571D01*
X133654761Y-129002380D01*
X133702380Y-129026190D01*
X133797619Y-129026190D01*
X133845238Y-129002380D01*
X133869047Y-128978571D01*
X133892857Y-128930952D01*
X133892857Y-128835714D01*
X133869047Y-128788095D01*
X133845238Y-128764285D01*
X133797619Y-128740476D01*
G04 #@! TO.C,D9*
X179330952Y-129626190D02*
X179330952Y-129126190D01*
X179450000Y-129126190D01*
X179521428Y-129150000D01*
X179569047Y-129197619D01*
X179592857Y-129245238D01*
X179616666Y-129340476D01*
X179616666Y-129411904D01*
X179592857Y-129507142D01*
X179569047Y-129554761D01*
X179521428Y-129602380D01*
X179450000Y-129626190D01*
X179330952Y-129626190D01*
X179854761Y-129626190D02*
X179950000Y-129626190D01*
X179997619Y-129602380D01*
X180021428Y-129578571D01*
X180069047Y-129507142D01*
X180092857Y-129411904D01*
X180092857Y-129221428D01*
X180069047Y-129173809D01*
X180045238Y-129150000D01*
X179997619Y-129126190D01*
X179902380Y-129126190D01*
X179854761Y-129150000D01*
X179830952Y-129173809D01*
X179807142Y-129221428D01*
X179807142Y-129340476D01*
X179830952Y-129388095D01*
X179854761Y-129411904D01*
X179902380Y-129435714D01*
X179997619Y-129435714D01*
X180045238Y-129411904D01*
X180069047Y-129388095D01*
X180092857Y-129340476D01*
G04 #@! TO.C,D10*
X173792857Y-129526190D02*
X173792857Y-129026190D01*
X173911904Y-129026190D01*
X173983333Y-129050000D01*
X174030952Y-129097619D01*
X174054761Y-129145238D01*
X174078571Y-129240476D01*
X174078571Y-129311904D01*
X174054761Y-129407142D01*
X174030952Y-129454761D01*
X173983333Y-129502380D01*
X173911904Y-129526190D01*
X173792857Y-129526190D01*
X174554761Y-129526190D02*
X174269047Y-129526190D01*
X174411904Y-129526190D02*
X174411904Y-129026190D01*
X174364285Y-129097619D01*
X174316666Y-129145238D01*
X174269047Y-129169047D01*
X174864285Y-129026190D02*
X174911904Y-129026190D01*
X174959523Y-129050000D01*
X174983333Y-129073809D01*
X175007142Y-129121428D01*
X175030952Y-129216666D01*
X175030952Y-129335714D01*
X175007142Y-129430952D01*
X174983333Y-129478571D01*
X174959523Y-129502380D01*
X174911904Y-129526190D01*
X174864285Y-129526190D01*
X174816666Y-129502380D01*
X174792857Y-129478571D01*
X174769047Y-129430952D01*
X174745238Y-129335714D01*
X174745238Y-129216666D01*
X174769047Y-129121428D01*
X174792857Y-129073809D01*
X174816666Y-129050000D01*
X174864285Y-129026190D01*
G04 #@! TO.C,D11*
X168092857Y-129526190D02*
X168092857Y-129026190D01*
X168211904Y-129026190D01*
X168283333Y-129050000D01*
X168330952Y-129097619D01*
X168354761Y-129145238D01*
X168378571Y-129240476D01*
X168378571Y-129311904D01*
X168354761Y-129407142D01*
X168330952Y-129454761D01*
X168283333Y-129502380D01*
X168211904Y-129526190D01*
X168092857Y-129526190D01*
X168854761Y-129526190D02*
X168569047Y-129526190D01*
X168711904Y-129526190D02*
X168711904Y-129026190D01*
X168664285Y-129097619D01*
X168616666Y-129145238D01*
X168569047Y-129169047D01*
X169330952Y-129526190D02*
X169045238Y-129526190D01*
X169188095Y-129526190D02*
X169188095Y-129026190D01*
X169140476Y-129097619D01*
X169092857Y-129145238D01*
X169045238Y-129169047D01*
G04 #@! TO.C,D12*
X162792857Y-129526190D02*
X162792857Y-129026190D01*
X162911904Y-129026190D01*
X162983333Y-129050000D01*
X163030952Y-129097619D01*
X163054761Y-129145238D01*
X163078571Y-129240476D01*
X163078571Y-129311904D01*
X163054761Y-129407142D01*
X163030952Y-129454761D01*
X162983333Y-129502380D01*
X162911904Y-129526190D01*
X162792857Y-129526190D01*
X163554761Y-129526190D02*
X163269047Y-129526190D01*
X163411904Y-129526190D02*
X163411904Y-129026190D01*
X163364285Y-129097619D01*
X163316666Y-129145238D01*
X163269047Y-129169047D01*
X163745238Y-129073809D02*
X163769047Y-129050000D01*
X163816666Y-129026190D01*
X163935714Y-129026190D01*
X163983333Y-129050000D01*
X164007142Y-129073809D01*
X164030952Y-129121428D01*
X164030952Y-129169047D01*
X164007142Y-129240476D01*
X163721428Y-129526190D01*
X164030952Y-129526190D01*
G04 #@! TO.C,D13*
X156692857Y-129626190D02*
X156692857Y-129126190D01*
X156811904Y-129126190D01*
X156883333Y-129150000D01*
X156930952Y-129197619D01*
X156954761Y-129245238D01*
X156978571Y-129340476D01*
X156978571Y-129411904D01*
X156954761Y-129507142D01*
X156930952Y-129554761D01*
X156883333Y-129602380D01*
X156811904Y-129626190D01*
X156692857Y-129626190D01*
X157454761Y-129626190D02*
X157169047Y-129626190D01*
X157311904Y-129626190D02*
X157311904Y-129126190D01*
X157264285Y-129197619D01*
X157216666Y-129245238D01*
X157169047Y-129269047D01*
X157621428Y-129126190D02*
X157930952Y-129126190D01*
X157764285Y-129316666D01*
X157835714Y-129316666D01*
X157883333Y-129340476D01*
X157907142Y-129364285D01*
X157930952Y-129411904D01*
X157930952Y-129530952D01*
X157907142Y-129578571D01*
X157883333Y-129602380D01*
X157835714Y-129626190D01*
X157692857Y-129626190D01*
X157645238Y-129602380D01*
X157621428Y-129578571D01*
G04 #@! TO.C,D14*
X184692857Y-129526190D02*
X184692857Y-129026190D01*
X184811904Y-129026190D01*
X184883333Y-129050000D01*
X184930952Y-129097619D01*
X184954761Y-129145238D01*
X184978571Y-129240476D01*
X184978571Y-129311904D01*
X184954761Y-129407142D01*
X184930952Y-129454761D01*
X184883333Y-129502380D01*
X184811904Y-129526190D01*
X184692857Y-129526190D01*
X185454761Y-129526190D02*
X185169047Y-129526190D01*
X185311904Y-129526190D02*
X185311904Y-129026190D01*
X185264285Y-129097619D01*
X185216666Y-129145238D01*
X185169047Y-129169047D01*
X185883333Y-129192857D02*
X185883333Y-129526190D01*
X185764285Y-129002380D02*
X185645238Y-129359523D01*
X185954761Y-129359523D01*
G04 #@! TO.C,C25*
X99078571Y-127778571D02*
X99054761Y-127802380D01*
X98983333Y-127826190D01*
X98935714Y-127826190D01*
X98864285Y-127802380D01*
X98816666Y-127754761D01*
X98792857Y-127707142D01*
X98769047Y-127611904D01*
X98769047Y-127540476D01*
X98792857Y-127445238D01*
X98816666Y-127397619D01*
X98864285Y-127350000D01*
X98935714Y-127326190D01*
X98983333Y-127326190D01*
X99054761Y-127350000D01*
X99078571Y-127373809D01*
X99269047Y-127373809D02*
X99292857Y-127350000D01*
X99340476Y-127326190D01*
X99459523Y-127326190D01*
X99507142Y-127350000D01*
X99530952Y-127373809D01*
X99554761Y-127421428D01*
X99554761Y-127469047D01*
X99530952Y-127540476D01*
X99245238Y-127826190D01*
X99554761Y-127826190D01*
X100007142Y-127326190D02*
X99769047Y-127326190D01*
X99745238Y-127564285D01*
X99769047Y-127540476D01*
X99816666Y-127516666D01*
X99935714Y-127516666D01*
X99983333Y-127540476D01*
X100007142Y-127564285D01*
X100030952Y-127611904D01*
X100030952Y-127730952D01*
X100007142Y-127778571D01*
X99983333Y-127802380D01*
X99935714Y-127826190D01*
X99816666Y-127826190D01*
X99769047Y-127802380D01*
X99745238Y-127778571D01*
G04 #@! TO.C,C26*
X102378571Y-72478571D02*
X102354761Y-72502380D01*
X102283333Y-72526190D01*
X102235714Y-72526190D01*
X102164285Y-72502380D01*
X102116666Y-72454761D01*
X102092857Y-72407142D01*
X102069047Y-72311904D01*
X102069047Y-72240476D01*
X102092857Y-72145238D01*
X102116666Y-72097619D01*
X102164285Y-72050000D01*
X102235714Y-72026190D01*
X102283333Y-72026190D01*
X102354761Y-72050000D01*
X102378571Y-72073809D01*
X102569047Y-72073809D02*
X102592857Y-72050000D01*
X102640476Y-72026190D01*
X102759523Y-72026190D01*
X102807142Y-72050000D01*
X102830952Y-72073809D01*
X102854761Y-72121428D01*
X102854761Y-72169047D01*
X102830952Y-72240476D01*
X102545238Y-72526190D01*
X102854761Y-72526190D01*
X103283333Y-72026190D02*
X103188095Y-72026190D01*
X103140476Y-72050000D01*
X103116666Y-72073809D01*
X103069047Y-72145238D01*
X103045238Y-72240476D01*
X103045238Y-72430952D01*
X103069047Y-72478571D01*
X103092857Y-72502380D01*
X103140476Y-72526190D01*
X103235714Y-72526190D01*
X103283333Y-72502380D01*
X103307142Y-72478571D01*
X103330952Y-72430952D01*
X103330952Y-72311904D01*
X103307142Y-72264285D01*
X103283333Y-72240476D01*
X103235714Y-72216666D01*
X103140476Y-72216666D01*
X103092857Y-72240476D01*
X103069047Y-72264285D01*
X103045238Y-72311904D01*
G04 #@! TO.C,C27*
X154878571Y-79678571D02*
X154854761Y-79702380D01*
X154783333Y-79726190D01*
X154735714Y-79726190D01*
X154664285Y-79702380D01*
X154616666Y-79654761D01*
X154592857Y-79607142D01*
X154569047Y-79511904D01*
X154569047Y-79440476D01*
X154592857Y-79345238D01*
X154616666Y-79297619D01*
X154664285Y-79250000D01*
X154735714Y-79226190D01*
X154783333Y-79226190D01*
X154854761Y-79250000D01*
X154878571Y-79273809D01*
X155069047Y-79273809D02*
X155092857Y-79250000D01*
X155140476Y-79226190D01*
X155259523Y-79226190D01*
X155307142Y-79250000D01*
X155330952Y-79273809D01*
X155354761Y-79321428D01*
X155354761Y-79369047D01*
X155330952Y-79440476D01*
X155045238Y-79726190D01*
X155354761Y-79726190D01*
X155521428Y-79226190D02*
X155854761Y-79226190D01*
X155640476Y-79726190D01*
G04 #@! TO.C,C28*
X145678571Y-122578571D02*
X145654761Y-122602380D01*
X145583333Y-122626190D01*
X145535714Y-122626190D01*
X145464285Y-122602380D01*
X145416666Y-122554761D01*
X145392857Y-122507142D01*
X145369047Y-122411904D01*
X145369047Y-122340476D01*
X145392857Y-122245238D01*
X145416666Y-122197619D01*
X145464285Y-122150000D01*
X145535714Y-122126190D01*
X145583333Y-122126190D01*
X145654761Y-122150000D01*
X145678571Y-122173809D01*
X145869047Y-122173809D02*
X145892857Y-122150000D01*
X145940476Y-122126190D01*
X146059523Y-122126190D01*
X146107142Y-122150000D01*
X146130952Y-122173809D01*
X146154761Y-122221428D01*
X146154761Y-122269047D01*
X146130952Y-122340476D01*
X145845238Y-122626190D01*
X146154761Y-122626190D01*
X146440476Y-122340476D02*
X146392857Y-122316666D01*
X146369047Y-122292857D01*
X146345238Y-122245238D01*
X146345238Y-122221428D01*
X146369047Y-122173809D01*
X146392857Y-122150000D01*
X146440476Y-122126190D01*
X146535714Y-122126190D01*
X146583333Y-122150000D01*
X146607142Y-122173809D01*
X146630952Y-122221428D01*
X146630952Y-122245238D01*
X146607142Y-122292857D01*
X146583333Y-122316666D01*
X146535714Y-122340476D01*
X146440476Y-122340476D01*
X146392857Y-122364285D01*
X146369047Y-122388095D01*
X146345238Y-122435714D01*
X146345238Y-122530952D01*
X146369047Y-122578571D01*
X146392857Y-122602380D01*
X146440476Y-122626190D01*
X146535714Y-122626190D01*
X146583333Y-122602380D01*
X146607142Y-122578571D01*
X146630952Y-122530952D01*
X146630952Y-122435714D01*
X146607142Y-122388095D01*
X146583333Y-122364285D01*
X146535714Y-122340476D01*
G04 #@! TO.C,R31*
X144778571Y-81126190D02*
X144611904Y-80888095D01*
X144492857Y-81126190D02*
X144492857Y-80626190D01*
X144683333Y-80626190D01*
X144730952Y-80650000D01*
X144754761Y-80673809D01*
X144778571Y-80721428D01*
X144778571Y-80792857D01*
X144754761Y-80840476D01*
X144730952Y-80864285D01*
X144683333Y-80888095D01*
X144492857Y-80888095D01*
X144945238Y-80626190D02*
X145254761Y-80626190D01*
X145088095Y-80816666D01*
X145159523Y-80816666D01*
X145207142Y-80840476D01*
X145230952Y-80864285D01*
X145254761Y-80911904D01*
X145254761Y-81030952D01*
X145230952Y-81078571D01*
X145207142Y-81102380D01*
X145159523Y-81126190D01*
X145016666Y-81126190D01*
X144969047Y-81102380D01*
X144945238Y-81078571D01*
X145730952Y-81126190D02*
X145445238Y-81126190D01*
X145588095Y-81126190D02*
X145588095Y-80626190D01*
X145540476Y-80697619D01*
X145492857Y-80745238D01*
X145445238Y-80769047D01*
G04 #@! TO.C,R32*
X156178571Y-121126190D02*
X156011904Y-120888095D01*
X155892857Y-121126190D02*
X155892857Y-120626190D01*
X156083333Y-120626190D01*
X156130952Y-120650000D01*
X156154761Y-120673809D01*
X156178571Y-120721428D01*
X156178571Y-120792857D01*
X156154761Y-120840476D01*
X156130952Y-120864285D01*
X156083333Y-120888095D01*
X155892857Y-120888095D01*
X156345238Y-120626190D02*
X156654761Y-120626190D01*
X156488095Y-120816666D01*
X156559523Y-120816666D01*
X156607142Y-120840476D01*
X156630952Y-120864285D01*
X156654761Y-120911904D01*
X156654761Y-121030952D01*
X156630952Y-121078571D01*
X156607142Y-121102380D01*
X156559523Y-121126190D01*
X156416666Y-121126190D01*
X156369047Y-121102380D01*
X156345238Y-121078571D01*
X156845238Y-120673809D02*
X156869047Y-120650000D01*
X156916666Y-120626190D01*
X157035714Y-120626190D01*
X157083333Y-120650000D01*
X157107142Y-120673809D01*
X157130952Y-120721428D01*
X157130952Y-120769047D01*
X157107142Y-120840476D01*
X156821428Y-121126190D01*
X157130952Y-121126190D01*
G04 #@! TD*
M02*
