M48
; DRILL file {KiCad (5.1.10)-1} date 08/13/21 13:50:26
; FORMAT={-:-/ absolute / metric / decimal}
; #@! TF.CreationDate,2021-08-13T13:50:26+01:00
; #@! TF.GenerationSoftware,Kicad,Pcbnew,(5.1.10)-1
; #@! TF.FileFunction,Plated,1,2,PTH
FMAT,2
METRIC
T1C0.400
T2C1.000
T3C1.500
T4C2.900
T5C3.100
%
G90
G05
T1
X95.9Y-73.4
X100.5Y-113.2
X101.7Y-115.9
X106.1Y-126.2
X106.7Y-113.2
X128.4Y-108.7
X131.4Y-105.7
X135.2Y-86.7
X136.1Y-123.3
X140.4Y-86.4
X140.9Y-88.3
X140.9Y-90.2
X141.4Y-121.1
X142.0Y-84.7
X143.4Y-117.2
X150.9Y-114.9
X157.9Y-88.3
X158.5Y-115.3
X159.7Y-80.3
X160.0Y-86.3
X160.4Y-84.1
X160.8Y-114.8
X160.8Y-117.6
X161.1Y-87.4
X161.9Y-111.2
X162.0Y-108.9
X162.8Y-90.2
X163.3Y-77.9
X164.4Y-113.2
X166.8Y-92.7
X166.8Y-100.8
X168.9Y-95.4
X168.9Y-99.8
X169.6Y-117.6
X170.3Y-109.6
X170.3Y-113.2
X170.9Y-120.1
X171.4Y-97.8
X172.5Y-110.2
X172.5Y-114.1
X173.9Y-106.0
X173.9Y-109.2
X192.0Y-114.5
X197.1Y-112.4
T2
X125.0Y-63.0
X125.04Y-137.0
X126.37Y-60.46
X126.41Y-139.54
X127.74Y-63.0
X127.78Y-137.0
X129.11Y-60.46
X129.15Y-139.54
X130.48Y-63.0
X130.52Y-137.0
X131.85Y-60.46
X131.89Y-139.54
X133.22Y-63.0
X133.26Y-137.0
X134.59Y-60.46
X134.63Y-139.54
X135.96Y-63.0
X136.0Y-137.0
X165.0Y-63.0
X165.04Y-137.0
X166.37Y-60.46
X166.41Y-139.54
X167.74Y-63.0
X167.78Y-137.0
X169.11Y-60.46
X169.15Y-139.54
X170.48Y-63.0
X170.52Y-137.0
X171.85Y-60.46
X171.89Y-139.54
X173.22Y-63.0
X173.26Y-137.0
X174.59Y-60.46
X174.63Y-139.54
X175.96Y-63.0
X176.0Y-137.0
T3
X97.1Y-66.3
X97.1Y-133.7
X105.0Y-66.3
X105.0Y-133.7
T4
X101.05Y-56.05
X101.05Y-143.95
T5
X117.98Y-61.73
X118.02Y-138.27
X142.98Y-61.73
X143.02Y-138.27
X157.98Y-61.73
X158.02Y-138.27
X182.98Y-61.73
X183.02Y-138.27
T0
M30
